<?xml version="1.0"?>
<svg xmlns="http://www.w3.org/2000/svg" xmlns:xlink="http://www.w3.org/1999/xlink" version="1.1" viewBox="0 0 224 224" width="50px" height="50px"><g fill="none" fill-rule="nonzero" stroke="none" stroke-width="1" stroke-linecap="butt" stroke-linejoin="miter" stroke-miterlimit="10" stroke-dasharray="" stroke-dashoffset="0" font-family="none" font-weight="none" font-size="none" text-anchor="none" style="mix-blend-mode: normal"><path d="M0,224v-224h224v224z" fill="none"/><g id="original-icon" fill="#95a5a6"><g id="surface1"><path d="M94.08,13.44c-42.0175,0 -76.16,34.1425 -76.16,76.16c0,42.0175 34.1425,76.16 76.16,76.16c16.625,0 31.99,-5.355 44.52,-14.42l58.94,58.8l12.6,-12.6l-58.24,-58.38c11.445,-13.335 18.34,-30.6425 18.34,-49.56c0,-42.0175 -34.1425,-76.16 -76.16,-76.16zM94.08,22.4c37.17,0 67.2,30.03 67.2,67.2c0,37.17 -30.03,67.2 -67.2,67.2c-37.17,0 -67.2,-30.03 -67.2,-67.2c0,-37.17 30.03,-67.2 67.2,-67.2z"/></g></g></g></svg>
