<svg id="svg" version="1.1" width="400" height="80.3532008830022" viewBox="0 0 400 80.3532008830022" xmlns="http://www.w3.org/2000/svg" xmlns:xlink="http://www.w3.org/1999/xlink" ><g id="svgg"><path id="path0" d="M3.012 3.454 C 2.612 3.530,1.908 3.921,1.581 4.248 C 0.998 4.832,1.000 4.750,1.000 35.325 L 1.000 65.302 1.375 66.025 C 2.069 67.362,2.769 67.833,4.062 67.833 C 4.557 67.833,5.177 67.945,5.439 68.082 C 6.163 68.460,62.671 68.460,63.394 68.082 C 63.657 67.945,63.929 67.833,63.999 67.833 C 64.170 67.833,65.478 66.519,65.677 66.148 C 65.773 65.968,65.833 54.069,65.833 35.333 L 65.833 4.811 65.066 4.075 L 64.299 3.340 33.858 3.359 C 17.115 3.369,3.235 3.412,3.012 3.454 M16.863 9.828 C 17.261 10.320,17.271 13.493,16.875 13.625 C 16.723 13.676,16.667 14.254,16.667 15.754 C 16.667 16.947,16.597 17.857,16.500 17.917 C 16.408 17.973,16.333 18.429,16.333 18.929 C 16.333 19.429,16.262 19.968,16.175 20.127 C 16.088 20.286,15.971 20.773,15.915 21.208 C 15.859 21.644,15.743 22.000,15.656 22.000 C 15.570 22.000,15.500 22.337,15.500 22.750 C 15.500 23.162,15.425 23.500,15.333 23.500 C 15.242 23.500,15.167 23.750,15.167 24.056 C 15.167 24.361,15.114 24.663,15.051 24.727 C 14.987 24.791,14.919 24.950,14.900 25.081 C 14.881 25.212,14.745 25.559,14.599 25.852 C 14.453 26.145,14.333 26.523,14.333 26.692 C 14.333 26.862,14.276 27.000,14.206 27.000 C 14.136 27.000,13.935 27.319,13.759 27.708 C 13.375 28.559,13.401 28.494,13.250 28.958 C 13.183 29.165,13.062 29.333,12.981 29.333 C 12.900 29.333,12.833 29.475,12.833 29.649 C 12.833 29.822,12.721 30.008,12.583 30.060 C 12.446 30.113,12.333 30.309,12.333 30.495 C 12.333 30.681,12.258 30.833,12.167 30.833 C 12.075 30.833,12.000 30.921,12.000 31.028 C 12.000 31.252,9.827 33.500,9.610 33.500 C 9.323 33.500,8.243 34.074,7.980 34.367 C 7.626 34.761,7.357 34.745,6.978 34.308 C 6.589 33.860,6.482 10.918,6.867 10.533 C 6.977 10.423,7.000 10.333,6.919 10.333 C 6.838 10.333,6.991 10.104,7.259 9.824 L 7.748 9.314 12.139 9.365 L 16.530 9.417 16.863 9.828 M43.500 9.549 C 43.916 9.759,43.917 9.766,43.962 12.463 C 43.990 14.077,44.074 15.167,44.171 15.167 C 44.269 15.167,44.333 16.090,44.333 17.486 C 44.333 19.064,44.394 19.826,44.522 19.868 C 44.626 19.903,44.815 20.639,44.943 21.504 C 45.071 22.368,45.249 23.149,45.338 23.238 C 45.427 23.327,45.500 23.711,45.500 24.091 C 45.500 24.471,45.616 25.014,45.757 25.297 C 45.898 25.581,46.036 26.062,46.064 26.367 C 46.112 26.907,46.368 27.584,47.016 28.891 C 47.190 29.243,47.333 29.637,47.333 29.767 C 47.333 29.999,48.155 31.671,48.349 31.833 C 48.404 31.879,48.495 32.106,48.551 32.337 C 48.608 32.568,48.790 32.905,48.957 33.087 C 49.124 33.268,49.387 33.679,49.541 34.000 C 49.695 34.321,50.048 34.823,50.327 35.116 C 50.605 35.409,50.833 35.691,50.833 35.742 C 50.833 35.793,51.283 36.297,51.833 36.860 C 53.057 38.115,53.146 37.762,51.081 39.833 C 50.121 40.796,49.335 41.677,49.335 41.792 C 49.334 41.906,49.258 42.000,49.167 42.000 C 49.075 42.000,49.000 42.109,49.000 42.242 C 49.000 42.376,48.813 42.672,48.583 42.902 C 48.354 43.131,48.167 43.434,48.167 43.576 C 48.167 43.717,48.092 43.833,48.000 43.833 C 47.908 43.833,47.833 43.946,47.833 44.083 C 47.833 44.221,47.770 44.333,47.692 44.333 C 47.614 44.333,47.411 44.671,47.241 45.083 C 47.071 45.496,46.872 45.833,46.799 45.833 C 46.726 45.833,46.667 46.015,46.667 46.236 C 46.667 46.458,46.589 46.665,46.495 46.696 C 46.400 46.728,46.209 47.240,46.070 47.834 C 45.932 48.429,45.747 48.987,45.659 49.074 C 45.572 49.162,45.500 49.439,45.500 49.690 C 45.500 49.941,45.435 50.187,45.355 50.236 C 45.195 50.335,45.059 51.172,44.841 53.412 C 44.760 54.235,44.613 54.935,44.514 54.968 C 44.396 55.007,44.333 55.831,44.333 57.347 C 44.333 58.782,44.270 59.667,44.167 59.667 C 44.075 59.667,44.000 60.034,44.000 60.482 C 44.000 61.152,43.914 61.390,43.516 61.816 C 42.474 62.932,42.168 62.440,42.161 59.637 C 42.156 58.027,42.089 57.302,41.917 57.000 C 41.786 56.771,41.676 56.320,41.673 55.999 C 41.668 55.547,41.533 55.292,41.078 54.874 L 40.489 54.333 33.742 54.333 C 26.541 54.333,25.844 54.418,25.835 55.292 C 25.834 55.406,25.758 55.500,25.667 55.500 C 25.575 55.500,25.500 55.650,25.500 55.833 C 25.500 56.017,25.425 56.167,25.333 56.167 C 25.229 56.167,25.167 57.239,25.167 59.050 C 25.167 62.168,25.122 62.333,24.288 62.333 C 23.376 62.333,23.261 62.022,23.207 59.431 C 23.161 57.252,22.972 55.977,22.638 55.592 C 22.562 55.505,22.500 54.923,22.500 54.300 C 22.500 53.677,22.433 53.167,22.351 53.167 C 22.219 53.167,22.149 52.858,21.943 51.376 C 21.915 51.171,21.841 50.952,21.779 50.890 C 21.717 50.828,21.667 50.603,21.667 50.389 C 21.667 50.175,21.592 50.000,21.500 50.000 C 21.408 50.000,21.333 49.817,21.333 49.593 C 21.333 49.369,21.258 49.140,21.167 49.083 C 21.075 49.027,21.000 48.727,21.000 48.417 C 21.000 48.107,20.923 47.805,20.829 47.747 C 20.735 47.689,20.673 47.553,20.692 47.446 C 20.737 47.186,20.124 45.833,19.961 45.833 C 19.891 45.833,19.833 45.646,19.833 45.417 C 19.833 45.188,19.777 45.000,19.708 45.000 C 19.640 44.999,19.368 44.587,19.105 44.083 C 18.841 43.579,18.560 43.167,18.480 43.167 C 18.399 43.167,18.333 43.072,18.333 42.957 C 18.333 42.841,18.146 42.544,17.917 42.297 C 17.688 42.050,17.500 41.787,17.500 41.712 C 17.500 41.638,16.754 40.834,15.843 39.926 C 14.017 38.107,14.012 38.092,15.018 37.150 C 15.273 36.912,15.531 36.519,15.591 36.277 C 15.652 36.035,16.106 35.442,16.599 34.960 C 17.092 34.478,17.496 34.027,17.498 33.959 C 17.499 33.890,17.762 33.469,18.083 33.022 C 18.404 32.576,18.667 32.125,18.667 32.022 C 18.667 31.918,18.742 31.833,18.833 31.833 C 18.925 31.833,18.984 31.777,18.965 31.708 C 18.945 31.640,19.017 31.424,19.125 31.230 C 19.233 31.036,19.274 30.830,19.216 30.772 C 19.158 30.714,19.199 30.667,19.306 30.667 C 19.412 30.667,19.500 30.554,19.500 30.417 C 19.500 30.279,19.575 30.167,19.667 30.167 C 19.758 30.167,19.833 29.944,19.833 29.672 C 19.833 29.400,19.974 28.926,20.147 28.619 C 20.319 28.312,20.512 27.823,20.576 27.532 C 20.640 27.242,20.762 26.961,20.846 26.909 C 20.931 26.856,21.000 26.558,21.000 26.245 C 21.000 25.933,21.150 25.410,21.333 25.083 C 21.517 24.757,21.667 24.242,21.667 23.939 C 21.667 23.637,21.717 23.338,21.779 23.277 C 21.912 23.143,21.976 22.771,22.102 21.375 C 22.154 20.802,22.265 20.333,22.348 20.333 C 22.432 20.333,22.500 19.546,22.500 18.583 C 22.500 17.621,22.566 16.833,22.647 16.833 C 22.948 16.833,23.060 16.007,23.154 13.071 C 23.255 9.899,23.319 9.652,24.095 9.454 C 24.891 9.251,43.087 9.340,43.500 9.549 M59.670 9.667 C 59.873 9.987,59.884 34.163,59.682 34.481 C 59.562 34.670,59.465 34.647,59.153 34.356 C 58.943 34.160,58.684 34.000,58.578 34.000 C 57.935 34.000,55.167 31.603,55.167 31.047 C 55.167 30.930,55.092 30.833,55.000 30.833 C 54.908 30.833,54.833 30.730,54.833 30.604 C 54.833 30.477,54.721 30.281,54.583 30.167 C 54.446 30.053,54.333 29.846,54.333 29.707 C 54.333 29.569,54.198 29.334,54.033 29.186 C 53.724 28.909,53.167 27.838,53.167 27.522 C 53.167 27.424,53.017 27.076,52.833 26.750 C 52.650 26.424,52.500 26.017,52.500 25.847 C 52.500 25.677,52.388 25.323,52.251 25.061 C 52.114 24.798,52.002 24.373,52.001 24.117 C 52.000 23.860,51.850 23.340,51.667 22.961 C 51.483 22.581,51.333 22.135,51.333 21.969 C 51.333 21.803,51.264 21.667,51.179 21.667 C 51.094 21.667,50.977 21.235,50.920 20.708 C 50.864 20.181,50.746 19.620,50.659 19.461 C 50.571 19.301,50.500 18.312,50.500 17.262 C 50.500 16.169,50.429 15.309,50.333 15.250 C 50.242 15.193,50.167 14.964,50.167 14.740 C 50.167 14.516,50.092 14.333,50.000 14.333 C 49.604 14.333,49.799 9.876,50.208 9.587 C 50.750 9.204,59.424 9.277,59.670 9.667 M32.654 21.708 C 32.509 21.914,32.284 22.327,32.155 22.625 C 32.025 22.923,31.862 23.167,31.793 23.167 C 31.723 23.167,31.667 23.420,31.667 23.730 C 31.667 24.039,31.554 24.386,31.417 24.500 C 31.279 24.614,31.167 24.837,31.167 24.996 C 31.167 25.355,30.251 26.333,29.915 26.333 C 29.779 26.333,29.666 26.390,29.665 26.458 C 29.662 26.795,28.640 27.000,26.967 27.000 C 25.977 27.000,25.167 27.067,25.167 27.149 C 25.167 27.230,24.979 27.344,24.750 27.402 C 23.976 27.596,24.415 29.500,25.233 29.500 C 25.303 29.500,25.616 29.762,25.928 30.083 C 26.239 30.404,26.579 30.667,26.683 30.667 C 26.907 30.667,27.827 31.673,27.831 31.922 C 27.832 32.016,27.983 32.201,28.167 32.333 C 28.529 32.595,28.677 34.667,28.333 34.667 C 28.234 34.667,28.167 35.282,28.167 36.179 C 28.167 37.811,28.335 38.214,28.920 37.986 C 29.102 37.915,29.424 37.851,29.636 37.845 C 29.848 37.839,30.208 37.612,30.437 37.339 C 30.707 37.019,31.070 36.810,31.468 36.747 C 31.807 36.693,32.214 36.578,32.373 36.491 C 32.736 36.293,35.000 36.282,35.000 36.478 C 35.000 36.558,35.327 36.660,35.727 36.705 C 36.248 36.764,36.613 36.939,37.010 37.318 C 37.478 37.765,37.674 37.841,38.241 37.800 L 38.917 37.750 38.967 36.792 C 38.997 36.202,38.949 35.833,38.842 35.833 C 38.733 35.833,38.667 35.295,38.667 34.417 C 38.667 33.583,38.735 33.000,38.833 33.000 C 38.925 33.000,39.000 32.825,39.000 32.611 C 39.000 32.397,39.056 32.166,39.125 32.097 C 39.194 32.028,39.256 31.922,39.264 31.861 C 39.315 31.473,39.702 30.979,40.858 29.829 C 41.799 28.893,42.167 28.410,42.167 28.109 C 42.167 27.615,41.753 27.144,41.429 27.268 C 41.303 27.317,41.151 27.276,41.090 27.178 C 41.024 27.071,40.315 27.000,39.312 27.000 C 37.612 27.000,37.358 26.918,37.119 26.288 C 37.058 26.125,36.875 25.942,36.712 25.881 C 36.292 25.721,36.000 25.400,36.000 25.095 C 36.000 24.951,35.925 24.833,35.833 24.833 C 35.742 24.833,35.679 24.777,35.693 24.708 C 35.731 24.527,35.546 24.076,34.856 22.667 C 34.156 21.236,33.258 20.846,32.654 21.708 M8.500 42.294 C 8.500 42.424,8.627 42.503,9.764 43.083 C 10.545 43.482,13.167 46.044,13.167 46.410 C 13.167 46.551,13.224 46.667,13.294 46.667 C 13.421 46.667,13.722 47.161,13.929 47.708 C 13.989 47.869,14.105 48.000,14.186 48.000 C 14.267 48.000,14.333 48.150,14.333 48.333 C 14.333 48.517,14.407 48.667,14.497 48.667 C 14.587 48.667,14.712 48.873,14.774 49.125 C 14.837 49.377,15.026 49.829,15.194 50.130 C 15.362 50.431,15.500 50.818,15.500 50.991 C 15.500 51.164,15.581 51.333,15.680 51.366 C 15.780 51.399,15.914 51.874,15.979 52.421 C 16.045 52.969,16.226 53.672,16.382 53.984 C 16.586 54.389,16.667 54.968,16.667 56.012 C 16.667 57.032,16.729 57.493,16.875 57.542 C 17.689 57.813,16.919 62.000,16.054 62.000 C 15.933 62.000,15.833 62.075,15.833 62.167 C 15.833 62.258,15.683 62.333,15.500 62.333 C 15.317 62.333,15.167 62.258,15.167 62.167 C 15.167 62.060,13.795 62.000,11.384 62.000 L 7.602 62.000 7.134 61.552 L 6.667 61.104 6.667 52.003 C 6.667 41.743,6.614 42.173,7.875 42.169 C 8.219 42.168,8.500 42.224,8.500 42.294 M59.732 42.430 C 59.864 42.775,59.864 61.392,59.732 61.736 C 59.588 62.113,50.447 62.137,50.071 61.762 C 49.785 61.476,49.719 57.500,50.000 57.500 C 50.092 57.500,50.167 57.313,50.167 57.083 C 50.167 56.854,50.242 56.667,50.333 56.667 C 50.427 56.667,50.500 56.206,50.500 55.617 C 50.500 55.039,50.573 54.494,50.662 54.405 C 50.751 54.316,50.875 53.694,50.937 53.023 C 51.028 52.045,51.194 51.524,51.775 50.395 C 52.174 49.620,52.500 48.839,52.500 48.660 C 52.500 48.480,52.557 48.333,52.627 48.333 C 52.697 48.333,52.885 48.052,53.045 47.708 C 53.204 47.365,53.428 46.933,53.542 46.750 C 53.848 46.259,56.767 43.333,56.951 43.333 C 57.038 43.333,57.285 43.146,57.500 42.917 C 57.715 42.688,57.991 42.500,58.112 42.500 C 58.234 42.500,58.333 42.425,58.333 42.333 C 58.333 42.046,59.619 42.135,59.732 42.430 M35.697 59.583 C 36.483 60.052,36.745 61.592,36.135 62.160 C 35.805 62.468,35.555 62.500,33.480 62.500 L 31.189 62.500 30.845 62.016 C 30.236 61.161,30.515 59.964,31.407 59.601 C 31.973 59.371,35.317 59.357,35.697 59.583 " stroke="none" fill="#6bbbfc" fill-rule="evenodd"></path><path id="path1" d="M131.750 8.558 C 131.039 8.828,130.833 9.072,130.833 9.645 C 130.833 9.921,130.758 10.193,130.667 10.250 C 130.436 10.393,130.436 54.833,130.667 54.833 C 130.765 54.833,130.833 55.444,130.833 56.333 C 130.833 57.222,130.901 57.833,131.000 57.833 C 131.092 57.833,131.167 57.914,131.167 58.012 C 131.167 58.274,131.511 58.572,132.125 58.843 C 132.423 58.974,132.667 59.138,132.667 59.207 C 132.667 59.277,134.057 59.333,135.756 59.333 L 138.844 59.333 139.422 58.756 C 139.740 58.438,140.000 58.025,140.000 57.839 C 140.000 57.652,140.080 57.500,140.177 57.500 C 140.300 57.500,140.323 56.560,140.252 54.458 C 140.004 47.086,140.211 37.679,140.625 37.542 C 140.740 37.503,140.833 37.295,140.833 37.079 C 140.833 36.863,140.908 36.640,141.000 36.583 C 141.092 36.527,141.167 36.312,141.167 36.105 C 141.167 35.899,141.277 35.585,141.411 35.407 C 141.546 35.229,141.658 34.952,141.661 34.792 C 141.664 34.631,141.742 34.500,141.833 34.500 C 141.925 34.500,142.001 34.406,142.002 34.292 C 142.004 34.043,144.210 31.833,144.455 31.833 C 144.549 31.833,144.719 31.721,144.833 31.583 C 144.947 31.446,145.219 31.333,145.437 31.333 C 145.655 31.333,145.833 31.273,145.833 31.200 C 145.833 30.982,148.248 30.448,148.769 30.551 C 150.440 30.883,151.092 31.043,151.166 31.140 C 151.270 31.276,151.758 31.577,152.421 31.913 C 152.699 32.054,153.067 32.431,153.239 32.751 C 153.411 33.071,153.616 33.333,153.693 33.333 C 153.770 33.333,153.833 33.483,153.833 33.667 C 153.833 33.850,153.907 34.000,153.998 34.000 C 154.089 34.000,154.210 34.297,154.268 34.659 C 154.326 35.021,154.514 35.446,154.687 35.602 C 154.986 35.873,155.000 36.298,155.000 45.288 C 155.000 53.424,155.034 54.724,155.250 54.940 C 155.430 55.121,155.500 55.559,155.500 56.511 L 155.500 57.831 156.240 58.582 C 156.648 58.995,157.135 59.333,157.324 59.333 C 157.512 59.333,157.667 59.408,157.667 59.500 C 157.667 59.604,158.694 59.667,160.417 59.667 C 162.139 59.667,163.167 59.604,163.167 59.500 C 163.167 59.408,163.319 59.333,163.506 59.333 C 163.692 59.333,164.104 59.073,164.422 58.756 L 165.000 58.178 165.000 47.256 C 165.000 40.085,164.943 36.333,164.833 36.333 C 164.742 36.333,164.667 36.221,164.667 36.083 C 164.667 35.946,164.603 35.833,164.524 35.833 C 164.446 35.833,164.339 35.111,164.287 34.229 C 164.234 33.346,164.110 32.544,164.012 32.445 C 163.914 32.347,163.833 32.132,163.833 31.967 C 163.833 31.802,163.777 31.666,163.708 31.665 C 163.539 31.664,163.167 30.839,163.167 30.467 C 163.167 30.302,163.092 30.167,163.000 30.167 C 162.908 30.167,162.833 29.984,162.833 29.760 C 162.833 29.536,162.760 29.308,162.671 29.253 C 162.582 29.198,162.377 28.874,162.217 28.535 C 161.869 27.799,158.800 24.667,158.427 24.667 C 158.284 24.667,158.167 24.606,158.167 24.531 C 158.167 24.457,157.904 24.293,157.583 24.167 C 157.262 24.041,157.000 23.885,157.000 23.820 C 157.000 23.756,156.813 23.656,156.583 23.598 C 156.354 23.541,156.167 23.420,156.167 23.330 C 156.167 23.240,155.909 23.167,155.593 23.167 C 155.278 23.167,154.973 23.092,154.917 23.000 C 154.860 22.908,154.631 22.833,154.407 22.833 C 154.183 22.833,154.000 22.758,154.000 22.667 C 154.000 22.411,148.676 22.449,148.118 22.708 C 147.871 22.823,147.669 22.973,147.668 23.042 C 147.667 23.110,147.423 23.167,147.125 23.168 C 146.827 23.168,146.369 23.281,146.106 23.418 C 145.843 23.555,145.504 23.667,145.351 23.667 C 145.198 23.667,144.965 23.817,144.833 24.000 C 144.701 24.183,144.497 24.333,144.380 24.333 C 144.263 24.333,144.167 24.408,144.167 24.500 C 144.167 24.592,144.022 24.667,143.845 24.667 C 143.668 24.667,143.411 24.779,143.274 24.917 C 143.136 25.054,142.943 25.167,142.845 25.167 C 142.747 25.167,142.667 25.242,142.667 25.333 C 142.667 25.425,142.573 25.500,142.458 25.500 C 142.144 25.500,140.881 26.713,140.810 27.083 C 140.751 27.387,140.726 27.383,140.374 27.005 L 140.000 26.604 140.000 18.219 C 140.000 13.607,139.943 9.833,139.873 9.833 C 139.804 9.833,139.560 9.660,139.332 9.449 C 139.103 9.237,138.673 8.957,138.375 8.825 C 138.077 8.693,137.833 8.529,137.833 8.459 C 137.833 8.256,132.309 8.346,131.750 8.558 M102.667 9.449 C 102.162 9.488,101.679 9.590,101.592 9.676 C 101.505 9.763,101.298 9.833,101.133 9.833 C 100.968 9.833,100.833 9.908,100.833 10.000 C 100.833 10.092,100.463 10.167,100.010 10.167 C 99.557 10.167,99.140 10.242,99.083 10.333 C 99.027 10.425,98.722 10.500,98.407 10.500 C 98.091 10.500,97.833 10.565,97.833 10.645 C 97.833 10.725,97.533 10.839,97.167 10.897 C 96.800 10.956,96.500 11.078,96.500 11.169 C 96.500 11.259,96.331 11.336,96.125 11.339 C 95.730 11.344,95.111 11.722,95.258 11.869 C 95.305 11.916,95.041 11.995,94.670 12.045 C 94.146 12.115,93.836 12.306,93.273 12.901 C 92.876 13.322,92.471 13.667,92.374 13.667 C 92.066 13.667,90.163 15.706,90.053 16.154 C 89.994 16.390,89.809 16.705,89.640 16.853 C 89.471 17.001,89.333 17.207,89.333 17.311 C 89.333 17.415,89.263 17.500,89.177 17.500 C 89.091 17.500,88.970 17.837,88.908 18.250 C 88.846 18.662,88.729 19.000,88.648 19.000 C 88.566 19.000,88.500 19.262,88.500 19.583 C 88.500 19.904,88.425 20.167,88.333 20.167 C 87.964 20.167,88.125 27.396,88.500 27.667 C 88.683 27.799,88.834 28.059,88.834 28.245 C 88.835 28.431,88.947 28.798,89.084 29.061 C 89.221 29.323,89.333 29.652,89.333 29.791 C 89.333 29.930,89.472 30.166,89.641 30.314 C 89.810 30.462,89.978 30.671,90.016 30.779 C 90.137 31.128,92.188 33.167,92.418 33.167 C 92.542 33.167,92.790 33.354,92.970 33.583 C 93.150 33.812,93.410 34.000,93.548 34.000 C 93.685 34.000,93.841 34.112,93.894 34.250 C 93.946 34.387,94.142 34.500,94.328 34.500 C 94.514 34.500,94.667 34.575,94.667 34.667 C 94.667 34.758,94.779 34.833,94.915 34.833 C 95.052 34.833,95.258 34.983,95.372 35.167 C 95.492 35.359,95.761 35.500,96.008 35.500 C 96.244 35.500,96.582 35.610,96.760 35.745 C 96.938 35.879,97.240 35.992,97.433 35.995 C 97.625 35.998,97.917 36.150,98.083 36.333 C 98.249 36.517,98.505 36.667,98.651 36.668 C 98.797 36.668,99.131 36.781,99.394 36.918 C 99.657 37.055,100.008 37.167,100.176 37.167 C 100.343 37.167,100.527 37.242,100.583 37.333 C 100.640 37.425,100.869 37.500,101.093 37.500 C 101.317 37.500,101.500 37.575,101.500 37.667 C 101.500 37.758,101.744 37.836,102.042 37.839 C 102.340 37.842,102.729 37.954,102.907 38.089 C 103.085 38.223,103.479 38.333,103.782 38.333 C 104.085 38.333,104.333 38.408,104.333 38.500 C 104.333 38.592,104.483 38.667,104.667 38.667 C 104.850 38.667,105.000 38.742,105.000 38.833 C 105.000 38.925,105.329 39.000,105.731 39.000 C 106.133 39.000,106.677 39.112,106.939 39.249 C 107.202 39.386,107.644 39.498,107.922 39.499 C 108.234 39.500,108.518 39.627,108.667 39.833 C 108.799 40.017,109.003 40.167,109.120 40.167 C 109.237 40.167,109.333 40.242,109.333 40.333 C 109.333 40.425,109.483 40.500,109.667 40.500 C 109.850 40.500,110.000 40.566,110.000 40.648 C 110.000 40.729,110.347 40.848,110.771 40.911 C 111.196 40.975,111.697 41.171,111.886 41.347 C 112.075 41.523,112.328 41.667,112.448 41.667 C 112.568 41.667,112.667 41.742,112.667 41.833 C 112.667 41.925,112.776 42.000,112.909 42.000 C 113.223 42.000,114.000 42.777,114.000 43.091 C 114.000 43.224,114.075 43.333,114.167 43.333 C 114.258 43.333,114.333 43.483,114.333 43.667 C 114.333 43.850,114.408 44.000,114.500 44.000 C 114.592 44.000,114.667 44.337,114.667 44.750 C 114.667 45.163,114.742 45.500,114.833 45.500 C 114.925 45.500,115.000 45.837,115.000 46.250 C 115.000 46.663,114.925 47.000,114.833 47.000 C 114.742 47.000,114.667 47.246,114.667 47.547 C 114.667 47.902,114.550 48.177,114.333 48.333 C 114.150 48.465,114.000 48.670,114.000 48.787 C 114.000 49.026,112.850 50.167,112.610 50.167 C 112.525 50.167,112.297 50.342,112.103 50.556 C 111.881 50.801,111.378 51.030,110.750 51.171 C 110.200 51.296,109.712 51.439,109.667 51.490 C 108.982 52.255,101.676 52.226,101.668 51.458 C 101.667 51.390,101.419 51.333,101.117 51.333 C 100.814 51.333,100.485 51.252,100.386 51.153 C 100.287 51.053,99.747 50.930,99.186 50.879 C 98.625 50.829,98.167 50.722,98.167 50.644 C 98.167 50.565,98.017 50.500,97.833 50.500 C 97.650 50.500,97.500 50.425,97.500 50.333 C 97.500 50.242,97.331 50.164,97.125 50.161 C 96.919 50.158,96.604 50.046,96.426 49.911 C 96.249 49.777,95.892 49.667,95.635 49.667 C 95.377 49.667,95.167 49.610,95.167 49.541 C 95.167 49.471,94.923 49.307,94.625 49.175 C 94.327 49.043,93.897 48.763,93.668 48.551 C 93.440 48.340,93.159 48.167,93.043 48.167 C 92.928 48.167,92.833 48.092,92.833 48.000 C 92.833 47.908,92.650 47.833,92.427 47.833 C 92.203 47.833,91.973 47.758,91.917 47.667 C 91.703 47.320,90.005 47.653,90.001 48.042 C 90.001 48.110,89.896 48.167,89.769 48.167 C 89.509 48.167,89.114 48.708,88.917 49.333 C 88.845 49.563,88.646 49.871,88.476 50.020 C 88.306 50.168,88.167 50.487,88.167 50.728 C 88.167 50.969,88.109 51.167,88.040 51.167 C 87.912 51.167,87.611 51.661,87.404 52.208 C 87.344 52.369,87.228 52.500,87.147 52.500 C 87.066 52.500,87.000 52.916,87.000 53.424 C 87.000 54.492,87.664 55.407,88.747 55.832 C 89.069 55.959,89.333 56.123,89.333 56.198 C 89.333 56.272,89.517 56.333,89.741 56.333 C 89.965 56.333,90.246 56.473,90.366 56.644 C 90.485 56.815,90.813 57.006,91.093 57.067 C 91.373 57.129,91.708 57.326,91.838 57.506 C 91.971 57.690,92.268 57.833,92.518 57.833 C 92.762 57.833,93.177 57.945,93.439 58.082 C 93.702 58.219,94.160 58.332,94.458 58.332 C 94.756 58.333,95.000 58.408,95.000 58.500 C 95.000 58.592,95.112 58.667,95.250 58.667 C 95.388 58.667,95.500 58.742,95.500 58.833 C 95.500 58.925,95.837 59.000,96.250 59.000 C 96.662 59.000,97.000 59.075,97.000 59.167 C 97.000 59.258,97.333 59.333,97.740 59.333 C 98.147 59.333,98.521 59.399,98.570 59.478 C 98.619 59.558,99.276 59.659,100.030 59.703 C 100.851 59.750,101.425 59.859,101.464 59.974 C 101.552 60.240,110.445 60.249,110.533 59.984 C 110.567 59.883,111.098 59.760,111.714 59.711 C 112.330 59.661,112.833 59.556,112.833 59.477 C 112.833 59.398,113.129 59.333,113.490 59.333 C 113.851 59.333,114.193 59.258,114.250 59.167 C 114.307 59.075,114.536 59.000,114.760 59.000 C 114.984 59.000,115.167 58.925,115.167 58.833 C 115.167 58.742,115.317 58.667,115.500 58.667 C 115.683 58.667,115.833 58.592,115.833 58.500 C 115.833 58.408,115.983 58.333,116.166 58.333 C 116.576 58.333,117.833 57.801,117.833 57.627 C 117.833 57.557,117.983 57.500,118.167 57.500 C 118.350 57.500,118.500 57.425,118.500 57.333 C 118.500 57.242,118.595 57.167,118.711 57.167 C 118.827 57.167,119.275 56.829,119.705 56.417 C 120.136 56.004,120.566 55.667,120.661 55.667 C 120.756 55.667,120.833 55.578,120.833 55.469 C 120.833 55.360,121.283 54.837,121.833 54.307 C 122.383 53.777,122.833 53.245,122.833 53.125 C 122.833 53.005,122.981 52.801,123.161 52.671 C 123.340 52.541,123.534 52.226,123.590 51.970 C 123.646 51.713,123.762 51.461,123.846 51.409 C 123.931 51.356,124.000 51.135,124.000 50.917 C 124.000 50.698,124.075 50.473,124.167 50.417 C 124.258 50.360,124.333 50.018,124.333 49.657 C 124.333 49.296,124.408 49.000,124.500 49.000 C 124.723 49.000,124.723 42.608,124.500 42.164 C 124.408 41.982,124.258 41.684,124.167 41.502 C 124.075 41.320,124.000 40.945,124.000 40.669 C 124.000 40.393,123.930 40.167,123.845 40.167 C 123.759 40.167,123.636 39.998,123.572 39.792 C 123.508 39.585,123.409 39.379,123.353 39.333 C 123.212 39.219,122.900 38.698,122.553 38.000 C 122.195 37.281,121.931 37.000,121.612 37.000 C 121.476 37.000,121.291 36.785,121.199 36.522 C 121.089 36.206,120.875 36.005,120.568 35.928 C 120.312 35.864,119.984 35.674,119.839 35.506 C 119.554 35.177,118.598 34.558,118.125 34.395 C 117.965 34.340,117.833 34.228,117.833 34.147 C 117.833 34.066,117.721 34.000,117.583 34.000 C 117.446 34.000,117.333 33.933,117.333 33.852 C 117.333 33.770,117.071 33.655,116.750 33.594 C 116.429 33.534,116.167 33.413,116.167 33.326 C 116.167 33.238,116.017 33.167,115.833 33.167 C 115.650 33.167,115.500 33.092,115.500 33.000 C 115.500 32.908,115.349 32.833,115.164 32.833 C 114.849 32.833,114.185 32.539,114.000 32.317 C 113.954 32.262,113.581 32.173,113.170 32.119 C 112.760 32.065,112.397 31.942,112.365 31.844 C 112.332 31.747,112.087 31.667,111.819 31.667 C 111.552 31.667,111.333 31.592,111.333 31.500 C 111.333 31.408,111.221 31.333,111.083 31.333 C 110.946 31.333,110.833 31.258,110.833 31.167 C 110.833 31.075,110.576 31.000,110.262 31.000 C 109.948 31.000,109.578 30.888,109.440 30.750 C 109.300 30.610,108.893 30.500,108.512 30.500 C 108.139 30.500,107.833 30.444,107.832 30.375 C 107.830 30.137,106.931 29.833,106.229 29.833 C 105.824 29.833,105.417 29.727,105.274 29.583 C 105.136 29.446,104.868 29.333,104.679 29.333 C 104.489 29.333,104.333 29.258,104.333 29.167 C 104.333 29.075,104.183 29.000,104.000 29.000 C 103.817 29.000,103.667 28.925,103.667 28.833 C 103.667 28.742,103.485 28.667,103.264 28.667 C 103.042 28.667,102.834 28.584,102.800 28.484 C 102.767 28.383,102.388 28.261,101.960 28.213 C 101.500 28.161,101.065 27.997,100.898 27.812 C 100.742 27.641,100.541 27.500,100.451 27.500 C 100.249 27.500,98.328 25.535,98.042 25.035 C 97.789 24.594,97.753 21.667,98.000 21.667 C 98.092 21.667,98.167 21.517,98.167 21.333 C 98.167 21.150,98.242 21.000,98.333 21.000 C 98.425 21.000,98.500 20.890,98.500 20.756 C 98.500 20.438,99.605 19.333,99.922 19.333 C 100.057 19.333,100.167 19.258,100.167 19.167 C 100.167 19.075,100.300 19.000,100.463 19.000 C 100.626 19.000,100.869 18.848,101.003 18.662 C 101.139 18.474,101.524 18.280,101.873 18.224 C 102.218 18.169,102.500 18.059,102.500 17.979 C 102.500 17.899,102.650 17.833,102.833 17.833 C 103.017 17.833,103.167 17.758,103.167 17.667 C 103.167 17.330,109.412 17.457,110.037 17.806 C 110.337 17.974,111.068 18.162,111.659 18.224 C 112.251 18.285,112.810 18.410,112.901 18.501 C 112.992 18.592,113.239 18.667,113.450 18.667 C 113.661 18.667,113.833 18.723,113.833 18.793 C 113.833 19.008,114.708 19.298,115.708 19.413 C 116.235 19.474,116.667 19.594,116.667 19.679 C 116.667 19.764,117.292 19.833,118.057 19.833 L 119.448 19.833 120.390 18.935 C 120.909 18.440,121.333 17.915,121.333 17.768 C 121.333 17.621,121.408 17.500,121.500 17.500 C 121.592 17.500,121.667 17.388,121.667 17.251 C 121.667 17.115,121.817 16.909,122.000 16.795 C 123.144 16.080,122.076 12.510,120.714 12.495 C 120.459 12.492,120.104 12.379,119.926 12.245 C 119.749 12.110,119.380 12.000,119.107 12.000 C 118.834 12.000,118.660 11.951,118.720 11.891 C 118.946 11.666,118.219 11.344,117.472 11.339 C 117.044 11.336,116.667 11.251,116.633 11.150 C 116.600 11.050,116.219 10.927,115.786 10.879 C 115.354 10.830,115.000 10.725,115.000 10.645 C 115.000 10.565,114.850 10.500,114.667 10.500 C 114.483 10.500,114.333 10.425,114.333 10.333 C 114.333 10.236,113.778 10.167,113.000 10.167 C 112.267 10.167,111.667 10.108,111.667 10.036 C 111.667 9.614,105.656 9.221,102.667 9.449 M44.872 21.833 C 44.872 22.154,44.906 22.285,44.948 22.125 C 44.990 21.965,44.990 21.702,44.948 21.542 C 44.906 21.381,44.872 21.512,44.872 21.833 M186.583 22.667 C 186.527 22.758,186.297 22.833,186.073 22.833 C 185.850 22.833,185.667 22.897,185.667 22.976 C 185.667 23.054,185.160 23.165,184.542 23.222 C 183.698 23.299,183.348 23.409,183.140 23.663 C 182.988 23.848,182.759 24.000,182.632 24.000 C 182.313 24.000,181.503 24.388,181.501 24.542 C 181.501 24.610,181.255 24.667,180.957 24.667 C 180.608 24.667,180.252 24.816,179.964 25.083 C 179.717 25.313,179.436 25.500,179.341 25.500 C 179.245 25.500,179.167 25.575,179.167 25.667 C 179.167 25.758,179.014 25.833,178.828 25.833 C 178.642 25.833,178.446 25.946,178.394 26.083 C 178.341 26.221,178.156 26.333,177.982 26.333 C 177.809 26.333,177.667 26.408,177.667 26.500 C 177.667 26.592,177.569 26.667,177.449 26.667 C 177.154 26.667,174.667 29.139,174.667 29.433 C 174.667 29.561,174.592 29.667,174.500 29.667 C 174.408 29.667,174.333 29.776,174.333 29.909 C 174.333 30.042,174.161 30.324,173.950 30.535 C 173.740 30.745,173.515 31.030,173.451 31.167 C 173.279 31.539,172.953 32.024,172.625 32.397 C 172.465 32.580,172.333 32.822,172.333 32.934 C 172.333 33.047,172.253 33.166,172.156 33.198 C 172.058 33.231,171.936 33.574,171.884 33.962 C 171.832 34.350,171.724 34.667,171.645 34.667 C 171.565 34.667,171.500 34.929,171.500 35.250 C 171.500 35.571,171.425 35.833,171.333 35.833 C 171.242 35.833,171.167 36.124,171.167 36.480 C 171.167 36.851,171.060 37.214,170.917 37.333 C 170.708 37.507,170.667 38.166,170.667 41.333 C 170.667 44.501,170.708 45.160,170.917 45.333 C 171.059 45.451,171.167 45.815,171.167 46.177 C 171.167 46.527,171.242 46.860,171.333 46.917 C 171.425 46.973,171.500 47.203,171.500 47.427 C 171.500 47.650,171.575 47.833,171.667 47.833 C 171.758 47.833,171.833 48.081,171.833 48.385 C 171.833 48.688,171.943 49.082,172.078 49.260 C 172.213 49.438,172.325 49.698,172.328 49.838 C 172.331 49.978,172.483 50.201,172.667 50.333 C 172.850 50.465,173.000 50.711,173.000 50.878 C 173.000 51.277,173.463 52.167,173.671 52.167 C 173.760 52.167,173.833 52.282,173.833 52.423 C 173.833 52.564,174.158 52.995,174.556 53.381 C 174.953 53.767,175.309 54.171,175.347 54.279 C 175.464 54.608,176.839 56.000,177.051 56.004 C 177.160 56.006,177.474 56.268,177.748 56.587 C 178.023 56.906,178.379 57.167,178.540 57.167 C 178.701 57.167,178.833 57.242,178.833 57.333 C 178.833 57.425,178.983 57.500,179.167 57.500 C 179.350 57.500,179.500 57.575,179.500 57.667 C 179.500 57.758,179.688 57.833,179.917 57.833 C 180.146 57.833,180.333 57.907,180.333 57.997 C 180.333 58.087,180.521 58.207,180.750 58.265 C 180.979 58.322,181.167 58.436,181.167 58.518 C 181.167 58.600,181.317 58.667,181.500 58.667 C 181.683 58.667,181.833 58.742,181.833 58.833 C 181.833 58.925,182.016 59.000,182.240 59.000 C 182.464 59.000,182.693 59.075,182.750 59.167 C 182.807 59.258,183.069 59.333,183.333 59.333 C 183.598 59.333,183.854 59.398,183.903 59.478 C 183.952 59.558,184.369 59.673,184.830 59.734 C 185.290 59.795,185.667 59.917,185.667 60.006 C 185.667 60.105,187.325 60.167,190.000 60.167 C 192.675 60.167,194.333 60.105,194.333 60.006 C 194.333 59.917,194.710 59.795,195.170 59.734 C 195.631 59.673,196.048 59.558,196.097 59.478 C 196.146 59.398,196.402 59.333,196.667 59.333 C 196.931 59.333,197.193 59.258,197.250 59.167 C 197.307 59.075,197.536 59.000,197.760 59.000 C 197.984 59.000,198.167 58.925,198.167 58.833 C 198.167 58.742,198.317 58.667,198.500 58.667 C 198.683 58.667,198.833 58.592,198.833 58.500 C 198.833 58.408,199.012 58.333,199.230 58.333 C 199.448 58.333,199.719 58.221,199.833 58.083 C 199.947 57.946,200.144 57.833,200.270 57.833 C 200.397 57.833,200.500 57.758,200.500 57.667 C 200.500 57.575,200.650 57.500,200.833 57.500 C 201.017 57.500,201.167 57.425,201.167 57.333 C 201.167 57.242,201.299 57.167,201.460 57.167 C 201.621 57.167,201.977 56.906,202.252 56.587 C 202.526 56.268,202.844 56.006,202.958 56.004 C 203.203 55.999,205.000 54.199,205.000 53.958 C 205.000 53.867,205.321 53.484,205.714 53.105 C 206.107 52.726,206.568 52.117,206.739 51.750 C 206.909 51.383,207.094 51.046,207.150 51.000 C 207.372 50.816,207.667 50.151,207.667 49.836 C 207.667 49.651,207.738 49.500,207.826 49.500 C 207.913 49.500,208.037 49.219,208.101 48.875 C 208.165 48.531,208.356 48.129,208.525 47.980 C 208.750 47.784,208.833 47.479,208.833 46.855 C 208.833 46.385,208.896 46.000,208.974 46.000 C 209.600 46.000,209.770 38.157,209.167 37.083 C 208.983 36.757,208.833 36.267,208.833 35.995 C 208.833 35.723,208.758 35.500,208.667 35.500 C 208.575 35.500,208.500 35.313,208.500 35.083 C 208.500 34.854,208.435 34.667,208.355 34.667 C 208.276 34.667,208.168 34.350,208.116 33.962 C 208.064 33.574,207.942 33.231,207.844 33.198 C 207.747 33.166,207.667 32.974,207.667 32.773 C 207.667 32.572,207.523 32.303,207.347 32.177 C 207.172 32.050,206.894 31.621,206.730 31.223 C 206.566 30.826,206.372 30.500,206.299 30.500 C 206.226 30.500,206.167 30.393,206.167 30.262 C 206.167 29.951,202.881 26.667,202.571 26.667 C 202.440 26.667,202.333 26.592,202.333 26.500 C 202.333 26.408,202.191 26.333,202.018 26.333 C 201.844 26.333,201.659 26.221,201.606 26.083 C 201.554 25.946,201.395 25.833,201.253 25.833 C 201.111 25.833,200.788 25.601,200.534 25.317 C 200.179 24.920,199.891 24.780,199.286 24.712 C 198.854 24.663,198.500 24.558,198.500 24.478 C 198.500 24.399,198.399 24.333,198.276 24.333 C 198.153 24.333,197.916 24.183,197.750 24.000 C 197.584 23.817,197.319 23.667,197.161 23.667 C 197.003 23.667,196.605 23.554,196.276 23.417 C 195.947 23.279,195.375 23.167,195.005 23.167 C 194.636 23.167,194.333 23.092,194.333 23.000 C 194.333 22.908,194.150 22.833,193.927 22.833 C 193.703 22.833,193.473 22.758,193.417 22.667 C 193.354 22.565,192.029 22.500,190.000 22.500 C 187.971 22.500,186.646 22.565,186.583 22.667 M279.499 22.625 C 279.497 22.797,278.670 23.167,278.286 23.167 C 277.820 23.167,275.759 23.730,275.694 23.875 C 275.664 23.944,275.458 24.000,275.236 24.000 C 275.015 24.000,274.833 24.075,274.833 24.167 C 274.833 24.258,274.683 24.333,274.500 24.333 C 274.317 24.333,274.167 24.405,274.167 24.492 C 274.167 24.579,273.717 24.701,273.167 24.763 C 272.617 24.825,272.167 24.928,272.167 24.990 C 272.167 25.053,271.904 25.207,271.583 25.333 C 271.262 25.459,271.000 25.623,271.000 25.698 C 271.000 25.772,270.867 25.833,270.704 25.833 C 269.866 25.833,269.378 29.467,270.089 30.407 C 270.223 30.585,270.333 30.939,270.333 31.194 C 270.333 31.507,270.560 31.902,271.032 32.412 L 271.730 33.167 272.911 33.167 C 273.902 33.167,274.132 33.113,274.333 32.833 C 274.465 32.650,274.635 32.500,274.710 32.500 C 274.786 32.500,275.007 32.351,275.203 32.169 C 275.398 31.987,275.827 31.795,276.154 31.743 C 276.482 31.691,276.880 31.578,277.039 31.491 C 277.199 31.404,277.586 31.333,277.901 31.333 C 278.215 31.333,278.503 31.241,278.540 31.129 C 278.760 30.471,286.081 30.509,286.306 31.170 C 286.336 31.260,286.526 31.333,286.727 31.333 C 286.928 31.333,287.199 31.481,287.329 31.661 C 287.459 31.840,287.772 32.033,288.024 32.089 C 288.534 32.201,289.833 33.408,289.833 33.770 C 289.833 33.896,289.900 34.000,289.982 34.000 C 290.064 34.000,290.178 34.188,290.235 34.417 C 290.293 34.646,290.413 34.833,290.503 34.833 C 290.593 34.833,290.667 34.983,290.667 35.167 C 290.667 35.350,290.742 35.500,290.833 35.500 C 290.925 35.500,291.000 35.756,291.000 36.069 C 291.000 36.383,291.094 36.670,291.208 36.708 C 291.349 36.755,291.436 37.279,291.476 38.323 L 291.534 39.867 290.976 39.747 C 290.668 39.680,290.392 39.560,290.361 39.480 C 290.331 39.399,290.204 39.333,290.079 39.333 C 289.954 39.333,289.754 39.193,289.634 39.022 C 289.515 38.851,289.173 38.658,288.875 38.592 C 288.577 38.527,288.333 38.404,288.333 38.320 C 288.333 38.236,288.150 38.167,287.927 38.167 C 287.703 38.167,287.473 38.092,287.417 38.000 C 287.360 37.908,287.023 37.833,286.667 37.833 C 286.311 37.833,285.973 37.758,285.917 37.667 C 285.852 37.562,284.054 37.500,281.073 37.500 C 278.024 37.500,276.333 37.559,276.333 37.667 C 276.333 37.758,276.075 37.833,275.760 37.833 C 275.444 37.833,275.140 37.908,275.083 38.000 C 275.027 38.092,274.644 38.167,274.233 38.167 C 273.667 38.167,273.377 38.268,273.036 38.583 C 272.789 38.813,272.520 39.000,272.438 39.000 C 272.356 39.000,272.168 39.138,272.020 39.307 C 271.871 39.475,271.552 39.662,271.310 39.722 C 270.785 39.851,268.548 42.110,268.186 42.876 C 268.046 43.173,267.834 43.477,267.716 43.550 C 267.597 43.623,267.500 43.813,267.500 43.971 C 267.500 44.130,267.350 44.368,267.167 44.500 C 266.950 44.656,266.833 44.931,266.833 45.287 C 266.833 45.587,266.766 45.833,266.683 45.833 C 266.234 45.833,266.068 50.148,266.488 50.896 C 266.678 51.234,266.833 51.716,266.833 51.968 C 266.833 52.235,266.972 52.527,267.167 52.667 C 267.381 52.821,267.500 53.098,267.500 53.442 C 267.500 53.736,267.612 54.089,267.750 54.226 C 267.887 54.364,268.000 54.540,268.000 54.618 C 268.000 54.696,268.150 54.868,268.333 55.000 C 268.517 55.132,268.667 55.345,268.667 55.473 C 268.667 55.731,269.908 57.000,270.159 57.000 C 270.247 57.000,270.506 57.188,270.735 57.417 C 270.964 57.646,271.230 57.833,271.326 57.833 C 271.422 57.833,271.500 57.907,271.500 57.997 C 271.500 58.087,271.706 58.211,271.958 58.272 C 272.210 58.334,272.454 58.429,272.500 58.484 C 272.643 58.654,273.320 59.000,273.510 59.000 C 273.609 59.000,273.800 59.110,273.934 59.243 C 274.068 59.377,274.437 59.527,274.755 59.577 C 275.073 59.626,275.596 59.708,275.917 59.758 C 276.237 59.808,276.500 59.920,276.500 60.008 C 276.500 60.293,283.213 60.210,283.773 59.918 C 284.035 59.781,284.452 59.668,284.698 59.668 C 284.945 59.667,285.193 59.592,285.250 59.500 C 285.307 59.408,285.536 59.333,285.760 59.333 C 285.984 59.333,286.167 59.258,286.167 59.167 C 286.167 59.075,286.392 59.000,286.667 59.000 C 286.942 59.000,287.167 58.925,287.167 58.833 C 287.167 58.742,287.279 58.667,287.417 58.667 C 287.554 58.667,287.667 58.592,287.667 58.500 C 287.667 58.408,287.819 58.333,288.005 58.333 C 288.191 58.333,288.387 58.221,288.440 58.083 C 288.492 57.946,288.650 57.833,288.790 57.833 C 288.930 57.833,289.166 57.700,289.314 57.537 C 289.462 57.375,289.808 57.099,290.083 56.926 C 290.358 56.752,290.681 56.473,290.801 56.305 C 291.202 55.743,291.500 55.933,291.500 56.750 C 291.500 57.163,291.575 57.500,291.667 57.500 C 291.758 57.500,291.833 57.645,291.833 57.822 C 291.833 57.999,291.965 58.186,292.125 58.238 C 292.285 58.289,292.567 58.557,292.750 58.832 L 293.083 59.332 296.602 59.333 L 300.121 59.333 300.561 58.894 L 301.000 58.455 301.000 47.311 C 301.000 39.992,300.943 36.167,300.833 36.167 C 300.737 36.167,300.667 35.639,300.667 34.917 C 300.667 34.194,300.596 33.667,300.500 33.667 C 300.408 33.667,300.333 33.554,300.333 33.417 C 300.333 33.279,300.258 33.167,300.167 33.167 C 300.075 33.167,300.000 32.910,300.000 32.595 C 300.000 32.281,299.887 31.911,299.750 31.774 C 299.612 31.636,299.500 31.368,299.500 31.179 C 299.500 30.989,299.425 30.833,299.333 30.833 C 299.242 30.833,299.167 30.683,299.167 30.500 C 299.167 30.317,299.092 30.167,299.000 30.167 C 298.908 30.167,298.833 30.057,298.833 29.922 C 298.833 29.788,298.571 29.415,298.250 29.094 C 297.929 28.774,297.667 28.449,297.667 28.373 C 297.667 28.203,296.451 27.000,296.279 27.000 C 296.211 27.000,295.893 26.738,295.572 26.417 C 295.251 26.096,294.898 25.832,294.786 25.830 C 294.675 25.828,294.359 25.565,294.085 25.246 C 293.678 24.773,293.470 24.667,292.950 24.667 C 292.600 24.667,292.356 24.598,292.408 24.514 C 292.460 24.431,292.276 24.262,292.001 24.140 C 291.725 24.018,291.500 23.862,291.500 23.793 C 291.500 23.723,291.244 23.667,290.931 23.667 C 290.617 23.667,290.331 23.575,290.293 23.463 C 290.250 23.334,289.755 23.236,288.946 23.195 C 288.242 23.159,287.667 23.063,287.667 22.982 C 287.667 22.900,287.554 22.833,287.417 22.833 C 287.279 22.833,287.167 22.758,287.167 22.667 C 287.167 22.560,285.778 22.500,283.333 22.500 C 281.225 22.500,279.499 22.556,279.499 22.625 M327.499 22.625 C 327.497 22.801,326.666 23.167,326.269 23.167 C 325.744 23.167,324.000 23.696,324.000 23.855 C 324.000 23.935,323.867 24.000,323.703 24.000 C 323.540 24.000,323.299 24.150,323.167 24.333 C 323.035 24.517,322.769 24.667,322.576 24.667 C 322.383 24.667,322.049 24.854,321.833 25.083 C 321.618 25.313,321.342 25.500,321.221 25.500 C 321.099 25.500,321.000 25.575,321.000 25.667 C 321.000 25.758,320.875 25.833,320.722 25.833 C 320.570 25.833,320.086 26.218,319.647 26.688 C 318.827 27.566,318.333 27.685,318.333 27.005 C 318.333 26.819,318.258 26.667,318.167 26.667 C 318.075 26.667,318.000 26.310,318.000 25.875 C 318.000 25.031,317.040 23.667,316.446 23.667 C 316.303 23.667,316.140 23.592,316.083 23.500 C 315.814 23.065,310.119 23.313,309.583 23.783 L 309.083 24.222 309.039 48.630 L 308.996 73.037 309.836 73.852 L 310.677 74.667 313.913 74.667 C 317.373 74.667,318.000 74.504,318.000 73.606 C 318.000 73.456,318.056 73.333,318.125 73.332 C 318.608 73.327,318.667 72.302,318.667 63.800 C 318.667 59.052,318.705 55.167,318.751 55.167 C 318.798 55.167,319.354 55.692,319.989 56.333 C 320.623 56.975,321.260 57.500,321.404 57.500 C 321.548 57.500,321.667 57.566,321.667 57.647 C 321.667 57.728,321.798 57.844,321.958 57.904 C 322.506 58.111,323.000 58.412,323.000 58.540 C 323.000 58.609,323.150 58.667,323.333 58.667 C 323.517 58.667,323.667 58.742,323.667 58.833 C 323.667 58.925,323.854 59.000,324.083 59.000 C 324.313 59.000,324.500 59.069,324.500 59.154 C 324.500 59.344,325.325 59.605,326.375 59.747 C 326.810 59.806,327.167 59.924,327.167 60.010 C 327.167 60.294,334.716 60.208,335.273 59.918 C 335.535 59.781,335.994 59.668,336.292 59.668 C 336.590 59.667,336.833 59.592,336.833 59.500 C 336.833 59.408,336.983 59.333,337.167 59.333 C 337.350 59.333,337.500 59.258,337.500 59.167 C 337.500 59.075,337.612 59.000,337.750 59.000 C 337.887 59.000,338.000 58.925,338.000 58.833 C 338.000 58.742,338.150 58.667,338.333 58.667 C 338.517 58.667,338.667 58.600,338.667 58.518 C 338.667 58.436,338.854 58.322,339.083 58.265 C 339.313 58.207,339.500 58.087,339.500 57.997 C 339.500 57.907,339.645 57.833,339.822 57.833 C 339.999 57.833,340.192 57.683,340.250 57.500 C 340.308 57.317,340.426 57.167,340.512 57.167 C 340.598 57.167,340.832 56.979,341.031 56.750 C 341.230 56.521,341.492 56.333,341.613 56.333 C 341.734 56.333,341.833 56.258,341.833 56.167 C 341.833 56.075,341.943 56.000,342.077 56.000 C 342.429 56.000,343.636 54.765,343.758 54.279 C 343.815 54.052,344.005 53.712,344.181 53.523 C 344.356 53.335,344.500 53.116,344.500 53.036 C 344.500 52.957,344.688 52.715,344.917 52.500 C 345.146 52.285,345.333 52.009,345.333 51.888 C 345.333 51.766,345.408 51.667,345.500 51.667 C 345.592 51.667,345.667 51.517,345.667 51.333 C 345.667 51.150,345.724 51.000,345.794 51.000 C 345.928 51.000,346.500 49.783,346.500 49.499 C 346.500 49.408,346.575 49.333,346.667 49.333 C 346.758 49.333,346.833 48.996,346.833 48.583 C 346.833 48.171,346.908 47.833,347.000 47.833 C 347.092 47.833,347.167 47.683,347.167 47.500 C 347.167 47.317,347.233 47.167,347.313 47.167 C 347.561 47.167,347.714 45.224,347.712 42.083 C 347.710 37.973,347.452 35.833,346.959 35.833 C 346.890 35.833,346.833 35.421,346.833 34.917 C 346.833 34.412,346.760 34.000,346.670 34.000 C 346.580 34.000,346.455 33.794,346.392 33.542 C 346.330 33.290,346.141 32.837,345.972 32.537 C 345.804 32.236,345.667 31.814,345.667 31.599 C 345.667 31.384,345.554 31.114,345.417 31.000 C 345.279 30.886,345.167 30.670,345.167 30.520 C 345.167 30.370,345.017 30.153,344.833 30.039 C 344.650 29.924,344.500 29.756,344.500 29.665 C 344.500 29.382,340.892 25.833,340.605 25.833 C 340.456 25.833,340.333 25.770,340.333 25.692 C 340.333 25.381,339.719 24.871,339.208 24.759 C 338.910 24.694,338.667 24.571,338.667 24.487 C 338.667 24.402,338.442 24.333,338.167 24.333 C 337.892 24.333,337.667 24.258,337.667 24.167 C 337.667 24.075,337.431 24.000,337.143 24.000 C 336.856 24.000,336.535 23.883,336.431 23.741 C 336.200 23.425,335.192 23.176,334.125 23.171 C 333.690 23.168,333.333 23.092,333.333 23.000 C 333.333 22.908,333.183 22.833,333.000 22.833 C 332.817 22.833,332.667 22.758,332.667 22.667 C 332.667 22.563,331.694 22.500,330.083 22.500 C 328.662 22.500,327.499 22.556,327.499 22.625 M371.667 22.667 C 371.667 22.758,371.517 22.833,371.333 22.833 C 371.150 22.833,371.000 22.899,371.000 22.980 C 371.000 23.061,370.659 23.213,370.243 23.318 C 369.827 23.422,369.444 23.619,369.392 23.754 C 369.339 23.892,369.087 24.000,368.816 24.000 C 368.550 24.000,368.333 24.075,368.333 24.167 C 368.333 24.258,368.221 24.333,368.083 24.333 C 367.946 24.333,367.833 24.408,367.833 24.500 C 367.833 24.592,367.681 24.667,367.495 24.667 C 367.309 24.667,367.113 24.779,367.060 24.917 C 367.008 25.054,366.822 25.167,366.649 25.167 C 366.475 25.167,366.333 25.242,366.333 25.333 C 366.333 25.425,366.237 25.500,366.120 25.500 C 365.905 25.500,364.333 26.958,364.333 27.156 C 364.333 27.215,364.183 27.274,364.000 27.288 C 363.713 27.309,363.667 27.210,363.667 26.573 C 363.667 26.166,363.592 25.833,363.500 25.833 C 363.408 25.833,363.333 25.690,363.333 25.514 C 363.333 25.338,363.277 25.169,363.208 25.139 C 363.140 25.108,362.930 24.784,362.742 24.418 C 362.223 23.404,361.972 23.339,358.567 23.336 C 355.352 23.333,354.500 23.476,354.500 24.016 C 354.500 24.191,354.421 24.333,354.323 24.333 C 354.226 24.333,354.193 24.408,354.250 24.500 C 354.307 24.592,354.272 24.667,354.173 24.667 C 353.811 24.667,354.022 72.807,354.387 73.458 C 354.554 73.756,354.798 74.000,354.929 74.000 C 355.060 74.000,355.167 74.057,355.167 74.126 C 355.167 74.822,362.373 74.935,362.970 74.249 C 363.170 74.019,363.333 73.719,363.333 73.582 C 363.333 73.445,363.408 73.333,363.500 73.333 C 363.609 73.333,363.667 70.194,363.667 64.250 C 363.667 59.254,363.711 55.167,363.764 55.167 C 363.818 55.167,364.305 55.617,364.847 56.167 C 365.388 56.717,365.944 57.167,366.082 57.167 C 366.220 57.167,366.333 57.242,366.333 57.333 C 366.333 57.425,366.483 57.500,366.667 57.500 C 366.850 57.500,367.000 57.575,367.000 57.667 C 367.000 57.758,367.103 57.833,367.230 57.833 C 367.356 57.833,367.553 57.946,367.667 58.083 C 367.781 58.221,368.052 58.333,368.270 58.333 C 368.488 58.333,368.667 58.408,368.667 58.500 C 368.667 58.592,368.799 58.667,368.960 58.667 C 369.121 58.667,369.347 58.817,369.461 59.000 C 369.579 59.188,369.850 59.333,370.085 59.333 C 370.313 59.333,370.500 59.398,370.500 59.477 C 370.500 59.556,371.004 59.661,371.620 59.711 C 372.235 59.760,372.767 59.883,372.800 59.984 C 372.879 60.220,379.500 60.242,379.500 60.006 C 379.500 59.917,379.877 59.795,380.337 59.734 C 380.797 59.673,381.214 59.558,381.264 59.478 C 381.313 59.398,381.521 59.333,381.727 59.333 C 382.158 59.333,382.997 58.976,382.999 58.792 C 382.999 58.723,383.150 58.667,383.333 58.667 C 383.517 58.667,383.667 58.592,383.667 58.500 C 383.667 58.408,383.845 58.333,384.063 58.333 C 384.281 58.333,384.553 58.221,384.667 58.083 C 384.781 57.946,384.943 57.833,385.028 57.833 C 385.232 57.833,385.885 57.234,387.740 55.342 C 388.284 54.787,388.790 54.333,388.865 54.333 C 388.939 54.333,389.000 54.183,389.000 54.000 C 389.000 53.817,389.079 53.667,389.177 53.667 C 389.274 53.667,389.316 53.607,389.272 53.535 C 389.227 53.463,389.410 53.256,389.678 53.077 C 389.961 52.887,390.166 52.602,390.166 52.395 C 390.166 52.200,390.279 51.947,390.417 51.833 C 390.554 51.719,390.667 51.485,390.667 51.313 C 390.667 51.141,390.723 50.999,390.792 50.999 C 390.961 50.997,391.333 50.173,391.333 49.800 C 391.333 49.635,391.401 49.500,391.484 49.500 C 391.567 49.500,391.687 49.125,391.750 48.667 C 391.813 48.208,391.933 47.833,392.016 47.833 C 392.099 47.833,392.167 47.650,392.167 47.427 C 392.167 47.203,392.242 46.973,392.333 46.917 C 392.425 46.860,392.500 46.556,392.500 46.240 C 392.500 45.925,392.575 45.667,392.667 45.667 C 392.774 45.667,392.833 44.111,392.833 41.333 C 392.833 38.556,392.774 37.000,392.667 37.000 C 392.575 37.000,392.500 36.737,392.500 36.417 C 392.500 36.096,392.425 35.833,392.333 35.833 C 392.242 35.833,392.167 35.608,392.167 35.333 C 392.167 35.058,392.101 34.833,392.021 34.833 C 391.941 34.833,391.828 34.533,391.769 34.167 C 391.711 33.800,391.589 33.500,391.498 33.500 C 391.407 33.500,391.333 33.237,391.333 32.917 C 391.333 32.596,391.258 32.333,391.167 32.333 C 391.075 32.333,391.000 32.183,391.000 32.000 C 391.000 31.817,390.925 31.667,390.833 31.667 C 390.742 31.667,390.667 31.563,390.667 31.437 C 390.667 31.186,390.281 30.273,389.956 29.756 C 389.843 29.576,389.365 29.044,388.895 28.575 C 388.425 28.105,387.954 27.559,387.848 27.361 C 387.742 27.162,387.581 27.000,387.491 27.000 C 387.401 27.000,387.004 26.662,386.609 26.250 C 386.214 25.837,385.765 25.500,385.612 25.500 C 385.459 25.500,385.333 25.425,385.333 25.333 C 385.333 25.242,385.143 25.167,384.911 25.167 C 384.679 25.167,384.446 25.054,384.394 24.917 C 384.341 24.779,384.156 24.667,383.982 24.667 C 383.809 24.667,383.667 24.592,383.667 24.500 C 383.667 24.408,383.517 24.333,383.333 24.333 C 383.150 24.333,383.000 24.258,383.000 24.167 C 383.000 24.075,382.840 24.000,382.645 24.000 C 382.449 24.000,382.156 23.846,381.993 23.658 C 381.762 23.392,381.425 23.296,380.473 23.224 C 379.268 23.134,378.333 22.872,378.333 22.626 C 378.333 22.557,376.833 22.500,375.000 22.500 C 372.889 22.500,371.667 22.561,371.667 22.667 M211.542 23.475 C 211.141 23.826,210.962 26.000,211.333 26.000 C 211.425 26.000,211.500 26.135,211.500 26.300 C 211.500 26.673,211.873 27.497,212.042 27.499 C 212.110 27.499,212.167 27.744,212.168 28.042 C 212.168 28.340,212.281 28.798,212.418 29.061 C 212.555 29.323,212.667 29.680,212.667 29.852 C 212.667 30.025,212.742 30.167,212.833 30.167 C 212.925 30.167,213.000 30.317,213.000 30.500 C 213.000 30.683,213.065 30.833,213.145 30.833 C 213.225 30.833,213.339 31.133,213.397 31.500 C 213.456 31.867,213.578 32.167,213.669 32.167 C 213.759 32.167,213.833 32.429,213.833 32.750 C 213.833 33.071,213.908 33.333,214.000 33.333 C 214.092 33.333,214.167 33.483,214.167 33.667 C 214.167 33.850,214.242 34.000,214.333 34.000 C 214.425 34.000,214.503 34.169,214.506 34.375 C 214.509 34.581,214.619 34.938,214.750 35.167 C 214.881 35.396,214.991 35.865,214.994 36.208 C 214.997 36.552,215.075 36.833,215.167 36.833 C 215.258 36.833,215.333 36.983,215.333 37.167 C 215.333 37.350,215.408 37.500,215.500 37.500 C 215.592 37.500,215.667 37.669,215.668 37.875 C 215.668 38.081,215.781 38.465,215.918 38.727 C 216.055 38.990,216.167 39.421,216.167 39.686 C 216.167 39.950,216.223 40.167,216.292 40.168 C 216.461 40.170,216.833 40.994,216.833 41.367 C 216.833 41.532,216.902 41.667,216.987 41.667 C 217.071 41.667,217.190 41.910,217.251 42.208 C 217.396 42.919,217.715 43.667,217.874 43.667 C 217.943 43.667,218.000 43.854,218.000 44.083 C 218.000 44.313,218.070 44.500,218.156 44.500 C 218.243 44.500,218.366 44.855,218.431 45.289 C 218.496 45.723,218.688 46.325,218.858 46.627 C 219.028 46.930,219.167 47.325,219.167 47.505 C 219.167 47.686,219.238 47.833,219.325 47.833 C 219.412 47.833,219.534 48.283,219.597 48.833 C 219.659 49.383,219.775 49.833,219.855 49.833 C 219.935 49.833,220.000 50.021,220.000 50.250 C 220.000 50.479,220.075 50.667,220.167 50.667 C 220.258 50.667,220.333 50.817,220.333 51.000 C 220.333 51.183,220.392 51.333,220.464 51.333 C 220.709 51.333,221.167 52.300,221.167 52.817 C 221.167 53.101,221.242 53.333,221.333 53.333 C 221.425 53.333,221.500 53.483,221.500 53.667 C 221.500 53.850,221.575 54.000,221.667 54.000 C 221.758 54.000,221.833 54.262,221.833 54.583 C 221.833 54.904,221.908 55.167,222.000 55.167 C 222.092 55.167,222.167 55.302,222.167 55.468 C 222.167 55.634,222.277 55.915,222.411 56.093 C 222.546 56.271,222.658 56.548,222.661 56.708 C 222.664 56.869,222.742 57.000,222.833 57.000 C 222.925 57.000,223.000 57.150,223.000 57.333 C 223.000 57.721,224.215 59.000,224.583 59.000 C 224.721 59.000,224.833 59.075,224.833 59.167 C 224.833 59.272,225.944 59.333,227.833 59.333 C 229.722 59.333,230.833 59.272,230.833 59.167 C 230.833 59.075,230.975 59.000,231.148 59.000 C 231.442 59.000,232.000 58.137,232.000 57.683 C 232.000 57.582,232.075 57.500,232.167 57.500 C 232.258 57.500,232.333 57.313,232.333 57.083 C 232.333 56.854,232.408 56.667,232.500 56.667 C 232.592 56.667,232.667 56.329,232.667 55.917 C 232.667 55.504,232.742 55.167,232.833 55.167 C 232.925 55.167,233.000 55.021,233.000 54.843 C 233.000 54.665,233.075 54.473,233.167 54.417 C 233.258 54.360,233.334 54.187,233.334 54.032 C 233.335 53.877,233.447 53.535,233.584 53.273 C 233.721 53.010,233.833 52.541,233.833 52.231 C 233.833 51.921,233.908 51.667,234.000 51.667 C 234.092 51.667,234.167 51.517,234.167 51.333 C 234.167 51.150,234.233 51.000,234.314 51.000 C 234.396 51.000,234.513 50.663,234.575 50.250 C 234.636 49.837,234.757 49.500,234.844 49.500 C 234.930 49.500,235.000 49.200,235.000 48.833 C 235.000 48.467,235.075 48.167,235.167 48.167 C 235.258 48.167,235.333 48.021,235.333 47.843 C 235.333 47.665,235.402 47.477,235.485 47.426 C 235.569 47.374,235.688 47.032,235.750 46.666 C 235.812 46.300,235.931 46.000,236.015 46.000 C 236.098 46.000,236.167 45.887,236.167 45.750 C 236.167 45.612,236.242 45.500,236.333 45.500 C 236.425 45.500,236.500 45.275,236.500 45.000 C 236.500 44.725,236.557 44.500,236.626 44.500 C 236.823 44.500,237.134 43.660,237.258 42.790 C 237.321 42.353,237.438 41.955,237.519 41.905 C 237.600 41.855,237.667 41.631,237.667 41.407 C 237.667 41.183,237.732 41.000,237.812 41.000 C 237.939 41.000,238.177 40.283,238.392 39.250 C 238.441 39.012,238.467 39.048,238.481 39.375 C 238.491 39.627,238.575 39.833,238.667 39.833 C 238.758 39.833,238.833 40.096,238.833 40.417 C 238.833 40.737,238.908 41.000,239.000 41.000 C 239.092 41.000,239.167 41.135,239.167 41.300 C 239.167 41.655,239.536 42.497,239.693 42.499 C 239.753 42.499,239.854 42.875,239.917 43.333 C 239.980 43.791,240.099 44.208,240.182 44.260 C 240.265 44.311,240.333 44.611,240.333 44.927 C 240.333 45.242,240.408 45.500,240.500 45.500 C 240.592 45.500,240.667 45.612,240.667 45.750 C 240.667 45.887,240.736 46.000,240.821 46.000 C 240.906 46.000,241.028 46.413,241.091 46.917 C 241.154 47.421,241.271 47.833,241.353 47.833 C 241.434 47.833,241.500 48.022,241.500 48.252 C 241.500 48.638,241.776 49.301,242.019 49.500 C 242.075 49.546,242.173 49.938,242.236 50.371 C 242.300 50.804,242.423 51.203,242.510 51.256 C 242.596 51.309,242.667 51.611,242.667 51.927 C 242.667 52.242,242.723 52.500,242.793 52.500 C 242.981 52.500,243.305 53.324,243.431 54.125 C 243.492 54.515,243.608 54.833,243.688 54.833 C 243.768 54.833,243.833 55.096,243.833 55.417 C 243.833 55.737,243.908 56.000,244.000 56.000 C 244.092 56.000,244.167 56.150,244.167 56.333 C 244.167 56.517,244.242 56.667,244.333 56.667 C 244.425 56.667,244.500 56.854,244.500 57.083 C 244.500 57.313,244.570 57.500,244.655 57.500 C 244.741 57.500,244.862 57.661,244.924 57.858 C 245.092 58.386,246.019 59.249,246.658 59.472 C 247.345 59.712,250.000 59.734,250.000 59.500 C 250.000 59.403,250.556 59.333,251.333 59.333 C 252.111 59.333,252.667 59.264,252.667 59.167 C 252.667 59.075,252.812 59.000,252.989 59.000 C 253.166 59.000,253.358 58.850,253.417 58.667 C 253.475 58.483,253.592 58.333,253.678 58.333 C 253.763 58.333,253.833 58.071,253.833 57.750 C 253.833 57.429,253.908 57.167,254.000 57.167 C 254.092 57.167,254.167 56.984,254.167 56.760 C 254.167 56.536,254.242 56.307,254.333 56.250 C 254.425 56.193,254.500 55.932,254.500 55.669 C 254.500 55.406,254.612 55.078,254.750 54.940 C 254.887 54.803,255.000 54.477,255.000 54.215 C 255.000 53.931,255.134 53.644,255.333 53.500 C 255.543 53.349,255.667 53.069,255.667 52.745 C 255.667 52.462,255.777 52.085,255.911 51.907 C 256.046 51.729,256.158 51.454,256.161 51.297 C 256.164 51.139,256.317 50.743,256.500 50.417 C 256.683 50.090,256.833 49.684,256.833 49.514 C 256.833 49.344,256.945 48.990,257.082 48.727 C 257.219 48.465,257.332 48.081,257.332 47.875 C 257.333 47.669,257.408 47.500,257.500 47.500 C 257.592 47.500,257.667 47.350,257.667 47.167 C 257.667 46.983,257.742 46.833,257.833 46.833 C 257.925 46.833,258.000 46.618,258.000 46.354 C 258.000 46.090,258.112 45.781,258.250 45.667 C 258.387 45.553,258.500 45.206,258.500 44.896 C 258.500 44.587,258.575 44.333,258.667 44.333 C 258.758 44.333,258.833 44.183,258.833 44.000 C 258.833 43.817,258.908 43.667,259.000 43.667 C 259.092 43.667,259.167 43.525,259.167 43.352 C 259.167 43.180,259.279 42.823,259.416 42.561 C 259.553 42.298,259.665 41.856,259.666 41.578 C 259.666 41.266,259.793 40.982,260.000 40.833 C 260.217 40.677,260.333 40.402,260.333 40.044 C 260.333 39.547,260.585 38.881,260.855 38.667 C 260.912 38.621,261.012 38.265,261.078 37.875 C 261.143 37.485,261.264 37.167,261.348 37.167 C 261.432 37.167,261.500 36.904,261.500 36.583 C 261.500 36.262,261.557 36.000,261.626 36.000 C 261.785 36.000,262.104 35.252,262.249 34.542 C 262.310 34.244,262.429 34.000,262.513 34.000 C 262.598 34.000,262.667 33.813,262.667 33.583 C 262.667 33.354,262.742 33.167,262.833 33.167 C 262.925 33.167,263.000 32.942,263.000 32.667 C 263.000 32.392,263.065 32.167,263.145 32.167 C 263.225 32.167,263.339 31.867,263.397 31.500 C 263.456 31.133,263.578 30.833,263.669 30.833 C 263.759 30.833,263.833 30.683,263.833 30.500 C 263.833 30.317,263.908 30.167,264.000 30.167 C 264.092 30.167,264.167 30.019,264.167 29.838 C 264.167 29.658,264.321 29.234,264.511 28.898 C 264.700 28.561,264.898 27.919,264.951 27.471 C 265.004 27.023,265.112 26.617,265.190 26.569 C 265.269 26.520,265.333 26.297,265.333 26.073 C 265.333 25.850,265.390 25.666,265.458 25.665 C 265.898 25.661,266.182 23.749,265.800 23.367 C 265.655 23.221,264.419 23.167,261.288 23.167 L 256.975 23.167 256.154 23.996 C 255.575 24.582,255.332 24.962,255.328 25.288 C 255.325 25.542,255.213 25.896,255.078 26.074 C 254.943 26.251,254.833 26.704,254.833 27.078 C 254.833 27.569,254.740 27.827,254.500 28.000 C 254.286 28.154,254.167 28.431,254.167 28.773 C 254.167 29.066,254.080 29.334,253.975 29.370 C 253.869 29.405,253.747 29.861,253.704 30.383 C 253.661 30.906,253.560 31.333,253.479 31.333 C 253.399 31.333,253.333 31.483,253.333 31.667 C 253.333 31.850,253.258 32.000,253.167 32.000 C 253.075 32.000,253.000 32.262,253.000 32.583 C 253.000 32.904,252.935 33.167,252.855 33.167 C 252.690 33.167,252.167 34.918,252.167 35.469 C 252.167 35.670,252.092 35.833,252.000 35.833 C 251.908 35.833,251.833 36.078,251.833 36.377 C 251.833 36.726,251.723 36.989,251.523 37.114 C 251.318 37.242,251.182 37.578,251.123 38.106 C 251.073 38.546,250.950 38.933,250.850 38.967 C 250.749 39.000,250.667 39.284,250.667 39.597 C 250.667 39.910,250.592 40.167,250.500 40.167 C 250.408 40.167,250.333 40.392,250.333 40.667 C 250.333 40.942,250.268 41.167,250.188 41.167 C 250.108 41.167,249.995 41.467,249.936 41.833 C 249.877 42.200,249.755 42.500,249.665 42.500 C 249.574 42.500,249.500 42.650,249.500 42.833 C 249.500 43.017,249.444 43.167,249.375 43.168 C 249.157 43.170,248.833 44.045,248.833 44.630 C 248.833 45.380,248.436 45.259,248.363 44.487 C 248.334 44.173,248.240 43.845,248.155 43.758 C 248.070 43.671,248.000 43.442,248.000 43.250 C 248.000 42.849,247.640 42.003,247.468 42.001 C 247.405 42.001,247.302 41.475,247.239 40.833 C 247.175 40.192,247.058 39.667,246.978 39.667 C 246.899 39.667,246.833 39.517,246.833 39.333 C 246.833 39.150,246.758 39.000,246.667 39.000 C 246.575 39.000,246.500 38.737,246.500 38.417 C 246.500 38.096,246.425 37.833,246.333 37.833 C 246.242 37.833,246.167 37.683,246.167 37.500 C 246.167 37.317,246.100 37.167,246.019 37.167 C 245.938 37.167,245.820 36.755,245.758 36.253 C 245.695 35.750,245.574 35.295,245.488 35.243 C 245.403 35.190,245.333 34.964,245.333 34.740 C 245.333 34.516,245.258 34.333,245.167 34.333 C 245.075 34.333,245.000 34.183,245.000 34.000 C 245.000 33.817,244.935 33.667,244.857 33.667 C 244.778 33.667,244.667 33.279,244.611 32.804 C 244.555 32.330,244.432 31.865,244.338 31.771 C 244.244 31.677,244.167 31.427,244.167 31.217 C 244.167 31.006,244.092 30.833,244.000 30.833 C 243.908 30.833,243.833 30.683,243.833 30.500 C 243.833 30.317,243.762 30.167,243.675 30.167 C 243.588 30.167,243.466 29.717,243.403 29.167 C 243.341 28.617,243.225 28.167,243.145 28.167 C 243.065 28.167,243.000 27.979,243.000 27.750 C 243.000 27.521,242.925 27.333,242.833 27.333 C 242.742 27.333,242.667 27.183,242.667 27.000 C 242.667 26.817,242.592 26.667,242.500 26.667 C 242.408 26.667,242.333 26.484,242.333 26.260 C 242.333 26.008,242.098 25.631,241.708 25.262 L 241.083 24.670 238.101 24.668 L 235.119 24.667 234.643 25.165 C 234.281 25.544,234.167 25.824,234.167 26.332 C 234.167 26.699,234.109 27.000,234.039 27.000 C 233.875 27.000,233.333 28.519,233.333 28.981 C 233.333 29.175,233.258 29.333,233.167 29.333 C 233.075 29.333,233.000 29.596,233.000 29.917 C 233.000 30.238,232.925 30.500,232.833 30.500 C 232.742 30.500,232.667 30.688,232.667 30.917 C 232.667 31.146,232.602 31.333,232.522 31.333 C 232.442 31.333,232.335 31.650,232.283 32.038 C 232.231 32.426,232.108 32.769,232.011 32.802 C 231.913 32.834,231.833 33.117,231.833 33.431 C 231.833 33.744,231.758 34.000,231.667 34.000 C 231.575 34.000,231.500 34.183,231.500 34.407 C 231.500 34.631,231.435 34.854,231.355 34.903 C 231.276 34.952,231.162 35.294,231.103 35.663 C 231.044 36.032,230.922 36.333,230.831 36.333 C 230.741 36.333,230.667 36.671,230.667 37.083 C 230.667 37.496,230.592 37.833,230.500 37.833 C 230.408 37.833,230.333 37.983,230.333 38.167 C 230.333 38.350,230.258 38.500,230.167 38.500 C 230.075 38.500,230.000 38.781,229.999 39.125 C 229.998 39.469,229.886 39.965,229.749 40.227 C 229.612 40.490,229.500 40.794,229.500 40.902 C 229.500 41.194,229.103 41.997,228.958 41.999 C 228.890 41.999,228.833 42.323,228.833 42.718 C 228.833 43.113,228.723 43.582,228.589 43.760 C 228.427 43.973,228.342 44.494,228.339 45.292 C 228.335 46.061,228.266 46.500,228.149 46.500 C 228.047 46.500,228.010 46.381,228.066 46.235 C 228.133 46.060,228.059 45.941,227.849 45.886 C 227.448 45.781,227.338 45.372,227.336 43.958 C 227.334 43.330,227.261 42.833,227.169 42.833 C 227.078 42.833,226.956 42.532,226.897 42.163 C 226.838 41.794,226.724 41.452,226.645 41.403 C 226.565 41.354,226.500 41.056,226.500 40.740 C 226.500 40.425,226.425 40.167,226.333 40.167 C 226.242 40.167,226.167 39.985,226.167 39.764 C 226.167 39.542,226.082 39.333,225.979 39.299 C 225.876 39.264,225.752 38.827,225.704 38.326 C 225.648 37.731,225.511 37.323,225.309 37.147 C 225.131 36.992,225.000 36.656,225.000 36.355 C 225.000 36.068,224.932 35.833,224.848 35.833 C 224.764 35.833,224.646 35.515,224.584 35.125 C 224.419 34.083,224.134 33.167,223.974 33.167 C 223.896 33.167,223.833 32.829,223.833 32.417 C 223.833 32.004,223.777 31.667,223.708 31.667 C 223.640 31.667,223.439 31.217,223.264 30.667 C 223.088 30.117,222.882 29.667,222.805 29.667 C 222.729 29.667,222.667 29.442,222.667 29.167 C 222.667 28.892,222.592 28.667,222.500 28.667 C 222.408 28.667,222.333 28.554,222.333 28.417 C 222.333 28.279,222.258 28.167,222.167 28.167 C 222.075 28.167,222.000 27.838,222.000 27.437 C 222.000 26.992,221.903 26.627,221.750 26.500 C 221.612 26.386,221.500 26.189,221.500 26.063 C 221.500 25.937,221.425 25.833,221.333 25.833 C 221.242 25.833,221.167 25.683,221.167 25.500 C 221.167 25.317,221.092 25.167,221.000 25.167 C 220.908 25.167,220.833 25.066,220.833 24.942 C 220.833 24.647,220.266 24.000,220.007 24.000 C 219.895 24.000,219.679 23.851,219.527 23.668 C 219.092 23.147,212.109 22.978,211.542 23.475 M330.474 30.802 C 331.147 30.892,331.781 31.048,331.882 31.149 C 331.984 31.250,332.239 31.333,332.450 31.333 C 332.661 31.333,332.833 31.410,332.833 31.503 C 332.833 31.596,333.115 31.802,333.458 31.961 C 333.802 32.120,334.308 32.456,334.583 32.708 C 334.858 32.959,335.160 33.165,335.255 33.166 C 335.492 33.167,336.000 33.786,336.000 34.074 C 336.000 34.204,336.142 34.356,336.316 34.411 C 336.512 34.473,336.673 34.731,336.740 35.089 C 336.800 35.407,336.920 35.667,337.008 35.667 C 337.095 35.667,337.169 35.835,337.172 36.042 C 337.178 36.467,337.560 37.051,337.725 36.886 C 337.784 36.827,337.834 37.184,337.834 37.681 C 337.835 38.177,337.947 38.798,338.084 39.061 C 338.433 39.729,338.428 43.277,338.078 43.740 C 337.937 43.926,337.833 44.424,337.833 44.912 C 337.833 45.569,337.758 45.814,337.500 46.000 C 337.317 46.132,337.167 46.411,337.167 46.620 C 337.167 46.829,337.098 47.000,337.013 47.000 C 336.929 47.000,336.806 47.244,336.741 47.542 C 336.675 47.839,336.482 48.204,336.311 48.353 C 336.140 48.501,336.000 48.675,336.000 48.740 C 336.000 48.886,335.561 49.333,335.417 49.333 C 335.359 49.333,335.035 49.595,334.697 49.915 C 334.360 50.235,333.990 50.498,333.875 50.499 C 333.760 50.499,333.667 50.575,333.667 50.667 C 333.667 50.758,333.525 50.833,333.351 50.833 C 333.178 50.833,332.992 50.946,332.940 51.083 C 332.887 51.221,332.690 51.333,332.503 51.333 C 332.147 51.333,331.495 51.642,331.309 51.899 C 331.130 52.145,326.124 52.123,326.042 51.875 C 326.004 51.760,325.828 51.667,325.653 51.667 C 325.477 51.667,325.333 51.592,325.333 51.500 C 325.333 51.408,325.071 51.333,324.750 51.333 C 324.429 51.333,324.167 51.264,324.167 51.180 C 324.167 51.096,323.923 50.973,323.625 50.908 C 323.317 50.840,322.876 50.546,322.604 50.228 C 322.340 49.919,322.020 49.667,321.893 49.667 C 321.663 49.667,320.681 48.696,320.672 48.459 C 320.669 48.390,320.404 48.056,320.083 47.716 C 319.762 47.376,319.500 47.000,319.500 46.882 C 319.500 46.764,319.425 46.667,319.333 46.667 C 319.242 46.667,319.167 46.410,319.167 46.097 C 319.167 45.784,319.073 45.496,318.958 45.458 C 318.799 45.405,318.750 44.429,318.750 41.333 C 318.750 38.237,318.799 37.261,318.958 37.208 C 319.073 37.170,319.167 36.883,319.167 36.569 C 319.167 36.256,319.242 36.000,319.333 36.000 C 319.425 36.000,319.501 35.906,319.501 35.792 C 319.502 35.677,319.765 35.307,320.085 34.969 C 320.405 34.632,320.667 34.294,320.667 34.218 C 320.667 33.952,321.516 33.167,321.803 33.167 C 321.963 33.167,322.203 33.007,322.338 32.811 C 322.763 32.195,323.196 31.853,323.689 31.745 C 323.952 31.687,324.167 31.571,324.167 31.487 C 324.167 31.402,324.397 31.333,324.679 31.333 C 324.960 31.333,325.303 31.221,325.440 31.083 C 325.615 30.909,326.041 30.833,326.845 30.833 C 327.577 30.833,328.000 30.766,328.000 30.649 C 328.000 30.532,328.227 30.497,328.625 30.553 C 328.969 30.601,329.801 30.713,330.474 30.802 M374.903 30.645 C 374.952 30.724,375.369 30.839,375.830 30.900 C 376.290 30.962,376.667 31.084,376.667 31.172 C 376.667 31.261,376.913 31.333,377.213 31.333 C 377.569 31.333,377.844 31.450,378.000 31.667 C 378.132 31.850,378.408 32.000,378.614 32.000 C 378.819 32.000,379.084 32.116,379.202 32.258 C 379.491 32.606,379.989 33.107,380.904 33.972 C 381.323 34.369,381.667 34.768,381.667 34.859 C 381.667 34.949,381.779 35.136,381.917 35.274 C 382.054 35.411,382.167 35.706,382.167 35.929 C 382.167 36.151,382.223 36.334,382.292 36.335 C 382.458 36.336,382.833 37.158,382.833 37.519 C 382.833 37.677,382.927 37.837,383.042 37.875 C 383.199 37.927,383.250 38.754,383.250 41.250 C 383.250 43.746,383.199 44.572,383.042 44.625 C 382.927 44.663,382.833 44.951,382.833 45.264 C 382.833 45.577,382.758 45.833,382.667 45.833 C 382.575 45.833,382.500 45.946,382.500 46.083 C 382.500 46.221,382.425 46.333,382.333 46.333 C 382.242 46.333,382.167 46.549,382.167 46.813 C 382.167 47.077,382.054 47.386,381.917 47.500 C 381.779 47.614,381.667 47.776,381.667 47.860 C 381.667 47.944,381.343 48.328,380.948 48.715 C 380.553 49.101,380.180 49.550,380.119 49.712 C 380.058 49.875,379.875 50.059,379.713 50.121 C 379.550 50.183,379.245 50.406,379.035 50.617 C 378.824 50.828,378.542 51.000,378.409 51.000 C 378.276 51.000,378.167 51.075,378.167 51.167 C 378.167 51.258,378.017 51.333,377.833 51.333 C 377.650 51.333,377.500 51.390,377.500 51.459 C 377.500 52.044,370.899 52.448,370.708 51.875 C 370.670 51.760,370.533 51.667,370.403 51.667 C 370.273 51.667,370.167 51.592,370.167 51.500 C 370.167 51.408,369.939 51.333,369.661 51.333 C 369.366 51.333,369.116 51.229,369.060 51.083 C 369.008 50.946,368.822 50.833,368.649 50.833 C 368.475 50.833,368.333 50.758,368.333 50.667 C 368.333 50.575,368.234 50.500,368.113 50.500 C 367.992 50.500,367.738 50.331,367.549 50.125 C 367.359 49.919,366.791 49.363,366.285 48.891 C 365.746 48.386,365.323 47.832,365.261 47.548 C 365.202 47.282,365.007 46.959,364.827 46.829 C 364.647 46.699,364.500 46.422,364.500 46.213 C 364.500 46.004,364.430 45.833,364.344 45.833 C 364.257 45.833,364.136 45.496,364.075 45.083 C 364.013 44.671,363.896 44.333,363.814 44.333 C 363.733 44.333,363.667 43.963,363.667 43.510 C 363.667 43.057,363.592 42.640,363.500 42.583 C 363.408 42.527,363.333 42.039,363.333 41.500 C 363.333 40.961,363.408 40.473,363.500 40.417 C 363.592 40.360,363.667 39.873,363.667 39.333 C 363.667 38.794,363.733 38.312,363.814 38.262 C 363.896 38.211,364.012 37.907,364.072 37.585 C 364.132 37.263,364.253 37.000,364.341 37.000 C 364.428 37.000,364.500 36.792,364.500 36.537 C 364.500 36.268,364.637 35.975,364.827 35.838 C 365.007 35.708,365.201 35.390,365.258 35.130 C 365.317 34.859,365.757 34.288,366.291 33.788 C 366.802 33.309,367.393 32.746,367.606 32.538 C 367.818 32.330,368.237 32.112,368.537 32.053 C 368.838 31.994,369.205 31.808,369.353 31.640 C 369.507 31.465,369.847 31.333,370.145 31.333 C 370.432 31.333,370.667 31.263,370.667 31.177 C 370.667 31.091,371.023 30.968,371.458 30.904 C 371.894 30.840,372.400 30.727,372.583 30.654 C 373.038 30.473,374.792 30.466,374.903 30.645 M193.141 31.120 C 193.476 31.277,193.895 31.539,194.073 31.703 C 194.251 31.866,194.497 32.000,194.620 32.000 C 194.743 32.000,194.887 32.112,194.940 32.250 C 194.992 32.387,195.132 32.500,195.249 32.500 C 195.478 32.500,197.862 34.775,198.055 35.177 C 198.119 35.309,198.314 35.642,198.490 35.917 C 198.665 36.192,198.814 36.585,198.821 36.792 C 198.828 36.998,198.908 37.167,199.000 37.167 C 199.092 37.167,199.167 37.317,199.167 37.500 C 199.167 37.683,199.242 37.833,199.333 37.833 C 199.425 37.833,199.500 38.002,199.501 38.208 C 199.502 38.415,199.614 38.798,199.751 39.061 C 200.100 39.729,200.095 43.277,199.745 43.740 C 199.610 43.918,199.500 44.312,199.500 44.615 C 199.500 44.919,199.425 45.167,199.333 45.167 C 199.242 45.167,199.167 45.317,199.167 45.500 C 199.167 45.683,199.109 45.833,199.039 45.833 C 198.922 45.833,198.333 47.034,198.333 47.273 C 198.333 47.331,198.199 47.499,198.034 47.647 C 197.869 47.795,197.564 48.160,197.356 48.458 C 197.148 48.756,196.906 49.000,196.818 49.000 C 196.731 49.000,196.253 49.413,195.757 49.917 C 195.261 50.421,194.775 50.833,194.678 50.833 C 194.580 50.833,194.500 50.913,194.500 51.010 C 194.500 51.107,194.425 51.140,194.333 51.083 C 194.242 51.027,194.167 51.060,194.167 51.157 C 194.167 51.254,193.932 51.333,193.645 51.333 C 193.318 51.333,193.006 51.467,192.813 51.690 C 192.457 52.101,187.833 52.248,187.701 51.853 C 187.667 51.750,187.495 51.667,187.319 51.667 C 187.144 51.667,187.000 51.592,187.000 51.500 C 187.000 51.408,186.737 51.333,186.417 51.333 C 186.096 51.333,185.833 51.254,185.833 51.157 C 185.833 51.060,185.758 51.027,185.667 51.083 C 185.575 51.140,185.500 51.107,185.500 51.010 C 185.500 50.913,185.404 50.833,185.287 50.833 C 185.170 50.833,184.965 50.683,184.833 50.500 C 184.701 50.317,184.513 50.167,184.415 50.167 C 184.180 50.167,183.000 49.050,183.000 48.828 C 183.000 48.733,182.737 48.393,182.417 48.072 C 182.096 47.751,181.833 47.379,181.833 47.244 C 181.833 47.110,181.777 46.999,181.708 46.999 C 181.539 46.997,181.167 46.173,181.167 45.800 C 181.167 45.635,181.092 45.500,181.000 45.500 C 180.908 45.500,180.833 45.350,180.833 45.167 C 180.833 44.983,180.766 44.833,180.684 44.833 C 180.602 44.833,180.507 44.220,180.473 43.471 C 180.433 42.586,180.340 42.085,180.206 42.041 C 179.934 41.950,179.921 39.887,180.192 39.797 C 180.297 39.762,180.419 39.306,180.463 38.783 C 180.506 38.261,180.607 37.833,180.687 37.833 C 180.768 37.833,180.833 37.683,180.833 37.500 C 180.833 37.317,180.908 37.167,181.000 37.167 C 181.092 37.167,181.167 36.979,181.167 36.750 C 181.167 36.521,181.242 36.333,181.333 36.333 C 181.425 36.333,181.500 36.181,181.500 35.995 C 181.500 35.809,181.612 35.613,181.750 35.560 C 181.887 35.508,182.000 35.359,182.000 35.230 C 182.000 34.929,184.463 32.500,184.768 32.500 C 184.896 32.500,185.000 32.425,185.000 32.333 C 185.000 32.242,185.112 32.167,185.250 32.167 C 185.387 32.167,185.500 32.087,185.500 31.990 C 185.500 31.893,185.575 31.860,185.667 31.917 C 185.758 31.973,185.834 31.959,185.835 31.885 C 185.836 31.708,186.650 31.333,187.033 31.333 C 187.198 31.333,187.333 31.264,187.333 31.178 C 187.333 30.749,192.249 30.700,193.141 31.120 M285.333 43.500 C 285.333 43.592,285.558 43.667,285.833 43.667 C 286.108 43.667,286.333 43.742,286.333 43.833 C 286.333 43.925,286.708 44.000,287.167 44.000 C 287.625 44.000,288.000 44.068,288.000 44.152 C 288.000 44.236,288.318 44.358,288.707 44.424 C 289.097 44.489,289.537 44.683,289.685 44.855 C 289.834 45.026,290.009 45.167,290.073 45.167 C 290.138 45.167,290.288 45.260,290.408 45.375 C 290.528 45.490,290.785 45.694,290.980 45.828 C 291.174 45.963,291.333 46.198,291.333 46.350 C 291.333 46.502,291.446 46.719,291.583 46.833 C 291.721 46.947,291.833 47.210,291.833 47.417 C 291.833 47.623,291.721 47.886,291.583 48.000 C 291.446 48.114,291.333 48.311,291.333 48.437 C 291.333 48.563,291.258 48.667,291.167 48.667 C 291.075 48.667,291.000 48.782,291.000 48.923 C 291.000 49.261,289.767 50.500,289.430 50.500 C 289.285 50.500,289.167 50.567,289.167 50.649 C 289.167 50.730,288.979 50.844,288.750 50.902 C 288.521 50.959,288.333 51.080,288.333 51.170 C 288.333 51.260,288.234 51.333,288.113 51.333 C 287.992 51.333,287.730 51.521,287.531 51.750 C 287.273 52.046,287.000 52.167,286.584 52.167 C 286.263 52.167,286.000 52.242,286.000 52.333 C 286.000 52.425,285.813 52.500,285.583 52.500 C 285.354 52.500,285.167 52.575,285.167 52.667 C 285.167 52.758,285.017 52.833,284.833 52.833 C 284.650 52.833,284.500 52.908,284.500 53.000 C 284.500 53.097,283.944 53.167,283.167 53.167 C 282.389 53.167,281.833 53.097,281.833 53.000 C 281.833 52.908,281.683 52.833,281.500 52.833 C 281.317 52.833,281.167 52.758,281.167 52.667 C 281.167 52.575,280.844 52.500,280.449 52.500 C 280.054 52.500,279.585 52.390,279.407 52.255 C 279.229 52.121,278.915 52.008,278.708 52.005 C 278.502 52.002,278.333 51.925,278.333 51.833 C 278.333 51.742,278.215 51.667,278.070 51.667 C 277.072 51.667,275.946 49.570,276.025 47.856 L 276.083 46.583 277.125 45.542 C 277.698 44.969,278.265 44.500,278.385 44.500 C 278.505 44.500,278.749 44.390,278.926 44.255 C 279.104 44.121,279.419 44.008,279.625 44.005 C 279.831 44.002,280.000 43.925,280.000 43.833 C 280.000 43.742,280.225 43.667,280.500 43.667 C 280.775 43.667,281.000 43.592,281.000 43.500 C 281.000 43.397,281.833 43.333,283.167 43.333 C 284.500 43.333,285.333 43.397,285.333 43.500 M318.770 54.591 C 318.643 54.923,318.342 54.896,318.233 54.542 C 318.183 54.381,318.077 54.127,317.998 53.976 C 317.756 53.519,318.010 53.495,318.449 53.934 C 318.678 54.163,318.822 54.457,318.770 54.591 " stroke="none" fill="#0cbcfc" fill-rule="evenodd"></path><path id="path2" d="M31.446 59.714 C 30.719 59.953,30.421 61.242,30.926 61.963 C 31.277 62.464,35.603 62.540,36.090 62.053 C 36.479 61.664,36.331 60.446,35.829 59.912 C 35.436 59.493,32.519 59.362,31.446 59.714 " stroke="none" fill="#e7f6fc" fill-rule="evenodd"></path><path id="path3" d="M227.336 44.849 C 227.341 45.385,227.551 45.808,227.849 45.886 C 228.059 45.941,228.133 46.060,228.066 46.235 C 228.010 46.381,228.047 46.500,228.149 46.500 C 228.257 46.500,228.333 46.183,228.333 45.736 C 228.333 45.196,228.272 44.994,228.125 45.048 C 228.010 45.089,227.785 45.009,227.625 44.869 C 227.384 44.659,227.334 44.656,227.336 44.849 M317.944 53.611 C 317.894 53.662,317.918 53.826,317.998 53.976 C 318.077 54.127,318.183 54.381,318.233 54.542 C 318.342 54.896,318.643 54.923,318.770 54.591 C 318.865 54.343,318.109 53.446,317.944 53.611 M31.709 59.474 C 31.611 59.534,32.064 59.606,32.717 59.632 C 33.369 59.659,33.868 59.650,33.826 59.613 C 33.678 59.483,31.886 59.365,31.709 59.474 M34.687 59.455 C 35.790 59.543,36.250 60.070,36.250 61.248 C 36.250 61.736,36.305 62.048,36.372 61.942 C 37.021 60.923,35.962 59.313,34.677 59.363 L 33.917 59.393 34.687 59.455 M30.754 60.158 C 30.478 60.693,30.414 61.594,30.643 61.735 C 30.721 61.784,30.750 61.639,30.707 61.415 C 30.605 60.881,30.768 60.255,31.095 59.928 C 31.239 59.784,31.279 59.667,31.183 59.667 C 31.087 59.667,30.894 59.888,30.754 60.158 M30.979 62.208 C 31.219 62.515,35.710 62.667,35.891 62.375 C 35.934 62.306,34.920 62.273,33.637 62.301 C 31.910 62.338,31.234 62.295,31.028 62.134 C 30.779 61.939,30.774 61.947,30.979 62.208 " stroke="none" fill="#64d4fc" fill-rule="evenodd"></path><path id="path4" d="" stroke="none" fill="#28e0fc" fill-rule="evenodd"></path></g></svg>